<?xml version="1.0" encoding="UTF-8" standalone="no"?>
<!-- Created with Inkscape (http://www.inkscape.org/) -->

<svg
   xmlns:dc="http://purl.org/dc/elements/1.1/"
   xmlns:cc="http://creativecommons.org/ns#"
   xmlns:rdf="http://www.w3.org/1999/02/22-rdf-syntax-ns#"
   xmlns:svg="http://www.w3.org/2000/svg"
   xmlns="http://www.w3.org/2000/svg"
   xmlns:sodipodi="http://sodipodi.sourceforge.net/DTD/sodipodi-0.dtd"
   xmlns:inkscape="http://www.inkscape.org/namespaces/inkscape"
   width="750"
   height="1000"
   viewBox="0 0 198.4375 264.58334"
   version="1.1"
   id="svg8"
   inkscape:version="0.92.2 (5c3e80d, 2017-08-06)"
   sodipodi:docname="licorne.svg">
  <defs
     id="defs2" />
  <sodipodi:namedview
     id="base"
     pagecolor="#ffffff"
     bordercolor="#666666"
     borderopacity="1.0"
     inkscape:pageopacity="0.0"
     inkscape:pageshadow="2"
     inkscape:zoom="0.59335938"
     inkscape:cx="351.61382"
     inkscape:cy="457.09848"
     inkscape:document-units="px"
     inkscape:current-layer="layer1"
     showgrid="false"
     units="px"
     inkscape:pagecheckerboard="true"
     inkscape:showpageshadow="false"
     inkscape:window-width="1920"
     inkscape:window-height="1017"
     inkscape:window-x="-8"
     inkscape:window-y="-8"
     inkscape:window-maximized="1" />
  <metadata
     id="metadata5">
    <rdf:RDF>
      <cc:Work
         rdf:about="">
        <dc:format>image/svg+xml</dc:format>
        <dc:type
           rdf:resource="http://purl.org/dc/dcmitype/StillImage" />
        <dc:title></dc:title>
      </cc:Work>
    </rdf:RDF>
  </metadata>
  <g
     inkscape:label="Calque 1"
     inkscape:groupmode="layer"
     id="layer1"
     transform="translate(0,-32.41665)">
    <path
       style="fill:#00c800;fill-opacity:0.33333333;stroke:#ff0000;stroke-width:0.26458335px;stroke-linecap:butt;stroke-linejoin:miter;stroke-opacity:1"
       d="m 56.024326,214.34017 c -2.454799,13.11498 -6.278661,49.97298 -5.596949,68.1144 l 35.895548,-0.11147 c 0.494602,-3.52636 1.040072,-6.48964 3.56725,-7.91485 2.038652,1.58244 2.644066,4.22961 2.34102,8.36077 l 29.652845,-0.5574 c 0.22966,-9.77592 0.3463,-44.48111 -5.16581,-68.97589"
       id="path828-1"
       inkscape:connector-curvature="0"
       sodipodi:nodetypes="ccccccc" />
    <path
       style="fill:none;stroke:#f70000;stroke-width:0.26458335px;stroke-linecap:butt;stroke-linejoin:miter;stroke-opacity:1"
       d="M 75.955576,82.465112 120.21189,36.090739 c 2.1268,-1.866687 4.48604,-2.746405 5.01646,1.560676 L 116.3102,101.7506 C 99.071167,101.3327 80.044807,103.75119 75.955576,82.465112 Z"
       id="path830-1"
       inkscape:connector-curvature="0"
       sodipodi:nodetypes="ccccc" />
    <path
       style="fill:none;stroke:#0000ff;stroke-width:0.26458335px;stroke-linecap:butt;stroke-linejoin:miter;stroke-opacity:1"
       d="M 151.64837,89.376675 C 131.21864,69.266944 108.25758,66.313982 85.208156,63.959953 33.424988,58.610463 33.678808,106.23482 11.410477,124.60336 c 4.682029,1.95086 9.364059,1.19274 14.046089,0.22295 4.229459,9.94283 -8.566529,21.77737 -19.842889,33.44306 4.260979,0.75962 9.18779,0.9644 18.728119,-2.67544 -20.753319,20.97179 -31.44109,40.69652 -18.728119,57.52205 6.006479,-4.35893 10.8572,-5.88101 13.600179,-2.22954 -0.1782,13.61323 -4.59914,22.70087 -9.1411,31.65943 57.815,0.42496 94.498154,-101.55828 141.575614,-153.169195 z"
       id="path832-7"
       inkscape:connector-curvature="0"
       sodipodi:nodetypes="cccccccccc" />
    <path
       style="fill:none;stroke:#0000ff;stroke-width:0.26458335px;stroke-linecap:butt;stroke-linejoin:miter;stroke-opacity:1"
       d="m 59.234047,256.81491 c -13.11474,-0.81182 -24.51507,0.24556 -40.689051,-3.90169 2.55042,3.5808 4.87464,7.38782 9.1411,9.25258 -2.21269,7.60807 -6.649089,12.54769 -11.81654,16.61005 4.060461,2.57124 8.83283,4.64962 16.72152,4.57055 1.43473,4.85712 2.145861,9.51689 0.334431,13.4887 9.695828,-1.37459 16.12102,-7.47344 23.298669,-12.48541 z"
       id="path842-4"
       inkscape:connector-curvature="0"
       sodipodi:nodetypes="cccccccc" />
    <path
       style="fill:none;stroke:#000000;stroke-width:0.26458335px;stroke-linecap:butt;stroke-linejoin:miter;stroke-opacity:1"
       d="m 69.935826,73.435484 c -8.829519,4.590309 -38.51429,30.997946 -16.833008,41.469386 11.421747,-4.2935 20.133498,-13.0314 16.833008,-41.469386 z"
       id="path844-9"
       inkscape:connector-curvature="0"
       sodipodi:nodetypes="ccc" />
    <path
       style="fill:#00c800;fill-opacity:0.33333333;stroke:#00fd00;stroke-width:0.26458335px;stroke-linecap:butt;stroke-linejoin:miter;stroke-opacity:1"
       d="m 82.755667,118.91804 c -3.286681,-6.29958 5.89924,-9.23084 9.029618,-10.5903 4.230741,-1.18833 7.24263,-4.32684 10.473235,-7.11539 -0.92123,2.16448 -1.4601,4.13779 -1.33212,5.77767 2.17355,-2.60087 5.71511,-4.6277 8.73576,-5.65383 -1.0279,2.01217 -2.0519,3.44198 -1.26682,5.65383 2.57244,-2.59697 4.9229,-3.08508 7.29217,-3.75196 -0.38107,1.21349 -1.29542,2.30875 -0.93798,3.64048 2.53271,0.12593 5.75675,0.2527 5.73941,1.55507 0.0126,1.33446 -3.8647,-1.12527 -3.60657,2.6207 0.81096,11.76851 -4.21683,21.91724 -10.46937,23.00425 -12.327994,2.14323 -17.240893,-13.36888 -14.504565,-23.84464 0.277501,-1.06236 -10.188569,2.81152 -9.152768,8.70412"
       id="path846-9"
       inkscape:connector-curvature="0"
       sodipodi:nodetypes="cccccccccsssc" />
    <path
       style="fill:none;stroke:#0000fa;stroke-width:0.26458335px;stroke-linecap:butt;stroke-linejoin:miter;stroke-opacity:1"
       d="m 93.675847,109.76399 c -2.276581,5.26953 0.32562,22.01136 10.873553,22.97718 10.42233,-0.78786 12.54649,-21.89794 10.58575,-23.86899 -2.13121,-1.88649 -20.107724,-1.35279 -21.459303,0.89181 z"
       id="path848-6"
       inkscape:connector-curvature="0"
       sodipodi:nodetypes="cccc" />
    <path
       style="fill:none;stroke:#000000;stroke-width:0.26458335px;stroke-linecap:butt;stroke-linejoin:miter;stroke-opacity:1"
       d="m 146.04151,168.64019 c -1.96017,-2.77898 -3.656,-5.58198 -2.20713,-8.67087 3.4168,-4.9093 25.42217,2.16725 24.27842,6.9367 -1.62907,3.45149 -7.94829,3.78365 -12.45452,3.78365"
       id="path850-8"
       inkscape:connector-curvature="0"
       sodipodi:nodetypes="cccc" />
    <ellipse
       style="fill:#00c800;fill-opacity:0.33333333;stroke:#0000fa;stroke-width:0;stroke-linecap:round;stroke-linejoin:round;stroke-miterlimit:4;stroke-dasharray:none;stroke-opacity:1;paint-order:stroke fill markers"
       id="path852-8"
       cx="98.250938"
       cy="234.90968"
       rx="14.046083"
       ry="25.360983" />
    <path
       style="fill:none;stroke:#000000;stroke-width:0.26458335px;stroke-linecap:butt;stroke-linejoin:miter;stroke-opacity:1"
       d="m 34.108536,255.66414 -0.625639,12.74436 29.318411,-3.23283 0.157548,-12.34927 z"
       id="path854-9"
       inkscape:connector-curvature="0" />
    <path
       style="fill:none;stroke:#000000;stroke-width:0.26458335px;stroke-linecap:butt;stroke-linejoin:miter;stroke-opacity:1"
       d="m 121.18137,248.19676 0.69483,16.49218 7.85204,-0.44907 -0.87081,-16.45834 z"
       id="path856-3"
       inkscape:connector-curvature="0"
       sodipodi:nodetypes="ccccc" />
    <path
       style="fill:none;stroke:#000000;stroke-width:0.26458335px;stroke-linecap:butt;stroke-linejoin:miter;stroke-opacity:1"
       d="m 92.231195,282.78902 -0.290451,10.85092 29.756486,-0.14131 0.18681,-11.26701 z"
       id="path858-0"
       inkscape:connector-curvature="0"
       sodipodi:nodetypes="ccccc" />
    <path
       style="fill:none;stroke:#000000;stroke-width:0.26458335px;stroke-linecap:butt;stroke-linejoin:miter;stroke-opacity:1"
       d="m 50.427377,282.45457 -0.44591,10.92474 35.784068,0.22296 0.55739,-11.25917 z"
       id="path860-9"
       inkscape:connector-curvature="0" />
    <path
       style="fill:#00c800;fill-opacity:0.33333333;stroke:#f70000;stroke-width:0.26458335px;stroke-linecap:butt;stroke-linejoin:miter;stroke-opacity:1"
       d="m 76.201636,214.6746 c -10.85174,8.00986 -12.032679,25.51737 -13.24278,38.1518 l -28.85032,2.83774 c 1.94691,-20.86873 -2.92572,-55.8423 20.021809,-70.31283 l -0.945909,-53.75936 c -17.993,-0.033 -25.704131,-10.69634 -26.17025,-28.85032 2.0011,-27.090198 28.977882,-44.783907 57.385361,-50.133367 l -0.157652,36.41763 92.541775,1.576519 c 6.95042,0.546042 13.23162,2.012252 13.55807,11.666258 l 0.31531,77.72247 c -1.55115,6.96931 -5.26032,8.18393 -9.30147,8.51321 l -68.26335,0.15766 c 3.98519,1.0496 7.3166,3.82067 9.28485,9.12719 2.24501,8.24201 5.24274,28.45118 6.48035,49.99233 l -7.67606,0.41523 c -0.54378,-11.13192 -1.75265,-22.67514 -4.46314,-34.94103"
       id="path826-9"
       inkscape:connector-curvature="0"
       sodipodi:nodetypes="ccccccccccccccccc" />
  </g>
</svg>
