<?xml version="1.0" encoding="UTF-8" standalone="no"?>
<!-- Created with Inkscape (http://www.inkscape.org/) -->

<svg
   xmlns:dc="http://purl.org/dc/elements/1.1/"
   xmlns:cc="http://creativecommons.org/ns#"
   xmlns:rdf="http://www.w3.org/1999/02/22-rdf-syntax-ns#"
   xmlns:svg="http://www.w3.org/2000/svg"
   xmlns="http://www.w3.org/2000/svg"
   xmlns:sodipodi="http://sodipodi.sourceforge.net/DTD/sodipodi-0.dtd"
   xmlns:inkscape="http://www.inkscape.org/namespaces/inkscape"
   width="750"
   height="1000"
   viewBox="0 0 198.4375 264.58334"
   version="1.1"
   id="svg922"
   inkscape:version="0.92.2 (5c3e80d, 2017-08-06)"
   sodipodi:docname="licorne-avant.svg">
  <defs
     id="defs916" />
  <sodipodi:namedview
     id="base"
     pagecolor="#ffffff"
     bordercolor="#666666"
     borderopacity="1.0"
     inkscape:pageopacity="0.0"
     inkscape:pageshadow="2"
     inkscape:zoom="1.6151782"
     inkscape:cx="226.29454"
     inkscape:cy="262.09471"
     inkscape:document-units="px"
     inkscape:current-layer="layer1"
     showgrid="false"
     units="px"
     inkscape:pagecheckerboard="true"
     inkscape:showpageshadow="false"
     inkscape:window-width="1920"
     inkscape:window-height="1017"
     inkscape:window-x="1042"
     inkscape:window-y="-8"
     inkscape:window-maximized="1"
     showguides="false" />
  <metadata
     id="metadata919">
    <rdf:RDF>
      <cc:Work
         rdf:about="">
        <dc:format>image/svg+xml</dc:format>
        <dc:type
           rdf:resource="http://purl.org/dc/dcmitype/StillImage" />
        <dc:title />
      </cc:Work>
    </rdf:RDF>
  </metadata>
  <g
     inkscape:label="Calque 1"
     inkscape:groupmode="layer"
     id="layer1"
     transform="translate(0,-32.416663)">
    <rect
       style="fill:#ff0002;fill-opacity:0.14678901;stroke:none;stroke-width:1.32221496;stroke-linecap:round;stroke-linejoin:round;stroke-miterlimit:4;stroke-dasharray:none;stroke-opacity:1;paint-order:stroke fill markers"
       id="rect886"
       width="198.4375"
       height="264.58334"
       x="-2.8421709e-014"
       y="32.416664" />
    <path
       style="fill:#ff00ff;fill-opacity:1;stroke:#000000;stroke-width:1.33349061;stroke-linecap:round;stroke-linejoin:round;stroke-miterlimit:4;stroke-dasharray:none;stroke-opacity:1"
       d="m 160.89932,90.594253 c -5.10949,-5.106058 -17.12386,-17.069463 -27.89111,-18.760778 0,0 -0.87346,6.965858 -2.39766,16.808576 -0.43554,2.81247 -53.481745,2.875073 -49.086735,-1.084013 C 87.970664,81.75064 104.6479,63.614623 104.6479,63.614623 100.85539,62.718057 96.927548,62.34808 96.927548,62.34808 45.123485,56.914924 45.676835,105.8921 23.399515,124.54793 c 4.68393,1.98137 9.36784,1.2114 14.05176,0.22644 4.23117,10.09833 -8.56999,22.11796 -19.8509,33.9661 4.2627,0.7715 9.1915,0.97949 18.73568,-2.71729 -20.7617,21.29979 -21.29073,39.89998 -18.73568,58.4217 6.0089,-4.4271 10.86158,-5.97299 13.60567,-2.26441 -0.17827,13.82614 -4.601,23.05591 -9.14479,32.15458 57.83833,0.43161 91.741605,-101.32269 138.838065,-153.740797 z"
       id="path832-7-2"
       inkscape:connector-curvature="0"
       sodipodi:nodetypes="cssssccccccccc" />
    <path
       style="fill:#ff00ff;fill-opacity:1;stroke:#000004;stroke-width:1.33349061;stroke-linecap:round;stroke-linejoin:round;stroke-miterlimit:4;stroke-dasharray:none;stroke-opacity:1"
       d="m 69.482955,254.25053 c -13.12003,-0.82452 -24.52496,0.24939 -40.70547,-3.96272 2.55144,3.63681 4.87661,7.50337 9.14479,9.3973 -2.21359,7.72705 -6.65177,12.74392 -11.8213,16.86982 4.06209,2.61145 8.83639,4.72234 16.72826,4.64204 1.43531,4.93308 2.14673,9.66573 0.33457,13.69966 9.69974,-1.39609 16.12752,-7.59032 23.30806,-12.68068 z"
       id="path842-4-8"
       inkscape:connector-curvature="0"
       sodipodi:nodetypes="cccccccc" />
    <path
       style="fill:#ff9bd4;fill-opacity:1;stroke:#000000;stroke-width:1.33349061;stroke-linecap:round;stroke-linejoin:round;stroke-miterlimit:4;stroke-dasharray:none;stroke-opacity:1"
       d="m 133.19976,248.53038 -2.6164,7.73744 11.80495,4.15105 3.90462,-10.25845 z"
       id="path856-3-4"
       inkscape:connector-curvature="0"
       sodipodi:nodetypes="ccccc" />
    <path
       style="fill:#f2f2f2;fill-opacity:1;stroke:#040000;stroke-width:1.33349061;stroke-linecap:round;stroke-linejoin:round;stroke-miterlimit:4;stroke-dasharray:none;stroke-opacity:1"
       d="m 68.454829,205.08377 c -2.45578,13.3201 3.28658,39.99534 -10.68073,71.47256 l 35.768887,8.19837 c 0.4948,-3.58151 9.832134,-13.68428 12.360324,-15.13179 6.8387,0.31746 10.17644,9.12065 13.96671,15.17936 l 30.46329,-9.16432 c -12.89752,-21.10646 -7.08626,-55.28948 -14.15328,-78.59103"
       id="path828-1-2"
       inkscape:connector-curvature="0"
       sodipodi:nodetypes="ccccccc" />
    <path
       style="fill:none;stroke:#000000;stroke-width:1.33349061;stroke-linecap:round;stroke-linejoin:round;stroke-miterlimit:4;stroke-dasharray:none;stroke-opacity:1"
       d="M 87.970664,81.75064 132.24485,34.650981 c 2.12765,-1.895885 4.48785,-2.789364 5.01848,1.585079 l -8.92175,65.10169 c -17.246,-0.42443 -36.280035,2.03189 -40.370916,-19.58711 z"
       id="path830-1-3"
       inkscape:connector-curvature="0"
       sodipodi:nodetypes="ccccc" />
    <ellipse
       style="fill:#dddddd;fill-opacity:1;stroke:none;stroke-width:0;stroke-linecap:round;stroke-linejoin:round;stroke-miterlimit:4;stroke-dasharray:none;stroke-opacity:1;paint-order:stroke fill markers"
       id="path852-8-3"
       cx="110.27505"
       cy="236.57941"
       rx="14.051752"
       ry="25.757626" />
    <path
       style="fill:#ff9bd4;fill-opacity:1;stroke:#000000;stroke-width:1.33349061;stroke-linecap:round;stroke-linejoin:round;stroke-miterlimit:4;stroke-dasharray:none;stroke-opacity:1"
       d="m 71.479175,257.18912 4.59678,12.51377 24.248725,-4.28652 -5.393867,-12.66662 z"
       id="path854-9-4"
       inkscape:connector-curvature="0"
       sodipodi:nodetypes="ccccc" />
    <path
       style="fill:#ff9bd4;fill-opacity:1;stroke:#000000;stroke-width:1.33349061;stroke-linecap:round;stroke-linejoin:round;stroke-miterlimit:4;stroke-dasharray:none;stroke-opacity:1"
       d="m 119.87002,284.80227 3.76863,11.28264 31.58929,-8.71712 -4.89463,-11.72984 z"
       id="path858-0-9"
       inkscape:connector-curvature="0"
       sodipodi:nodetypes="ccccc" />
    <path
       style="fill:#ff9bd4;fill-opacity:1;stroke:#000000;stroke-width:1.33349061;stroke-linecap:round;stroke-linejoin:round;stroke-miterlimit:4;stroke-dasharray:none;stroke-opacity:1"
       d="m 57.774095,276.55633 -4.25723,11.09559 37.351199,8.68135 2.674918,-11.57857 z"
       id="path860-9-1"
       inkscape:connector-curvature="0"
       sodipodi:nodetypes="ccccc" />
    <path
       style="fill:#f2f2f2;fill-opacity:0.9908257;stroke:#000000;stroke-width:1.33349061;stroke-linecap:round;stroke-linejoin:round;stroke-miterlimit:4;stroke-dasharray:none;stroke-opacity:1"
       d="m 81.723765,207.57299 c -0.24073,10.33261 7.530707,31.43275 13.207048,45.17676 l -23.451638,4.43937 c -8.43261,-21.60044 -28.87398,-71.54847 -5.91719,-86.24532 l -0.37165,-39.29798 c -18.00026,-0.0335 -25.7145,-10.86363 -26.18081,-29.30154 2.00191,-27.513885 28.98958,-45.484323 57.408518,-50.917447 L 96.260329,88.41403 163.48757,87.380606 c 6.35436,0.149259 10.8415,2.651714 10.56922,9.619451 l -0.16648,68.168183 c -0.98717,6.21848 -5.63747,6.87888 -9.82141,6.4968 l -34.073,-0.26979 c 3.9868,1.06602 17.5203,9.98064 22.13701,25.16991 2.91327,6.75981 5.34341,35.1565 -5.83998,53.59526 l -4.09527,-0.49143 c -0.544,-11.30602 -2.4349,-31.50925 -6.41687,-44.11029"
       id="path826-9-4"
       inkscape:connector-curvature="0"
       sodipodi:nodetypes="ccccccccccccccccc" />
    <path
       style="fill:none;stroke:#000000;stroke-width:1.33349061;stroke-linecap:round;stroke-linejoin:round;stroke-miterlimit:4;stroke-dasharray:none;stroke-opacity:1"
       d="m 141.31672,159.33463 c -1.96096,-2.82245 -3.65748,-5.66928 -2.20802,-8.80648 3.41817,-4.98608 25.43242,2.20115 24.28821,7.04519 -1.62972,3.50547 -7.95149,3.84283 -12.45954,3.84283"
       id="path850-8-7"
       inkscape:connector-curvature="0"
       sodipodi:nodetypes="cccc" />
    <path
       style="fill:#000000;fill-opacity:0.98165134;stroke:none;stroke-width:0.26669815px;stroke-linecap:butt;stroke-linejoin:miter;stroke-opacity:1"
       d="m 83.622381,118.12884 c -3.288006,-6.39812 5.90162,-9.37522 9.033263,-10.75594 4.232448,-1.20692 7.245554,-4.39451 10.477456,-7.22668 -0.9216,2.19834 -1.46069,4.20251 -1.33266,5.86804 2.17443,-2.64155 5.71742,-4.70008 8.73929,-5.74226 -1.02832,2.04364 -2.05273,3.49581 -1.26733,5.74226 2.57348,-2.63759 4.92489,-3.13333 7.29511,-3.81064 -0.38122,1.23246 -1.29594,2.34485 -0.93836,3.69741 2.53374,0.1279 5.75908,0.25665 5.74173,1.57939 0.0126,1.35534 -3.86626,-1.14287 -3.60803,2.66169 0.81129,11.95257 -4.21853,22.26003 -10.47359,23.36403 -12.332967,2.17675 -17.247849,-13.57796 -14.510415,-24.21756 0.277612,-1.07898 -10.192683,2.85549 -9.156464,8.84026"
       id="path846-9-7"
       inkscape:connector-curvature="0"
       sodipodi:nodetypes="cccccccccsssc" />
    <path
       style="fill:#000080;fill-opacity:1;stroke:none;stroke-width:0.26669815px;stroke-linecap:butt;stroke-linejoin:miter;stroke-opacity:1"
       d="m 94.405811,109.18987 c -2.277489,5.35195 0.325751,22.35562 10.877939,23.33654 10.42655,-0.80018 12.55156,-22.24042 10.59003,-24.2423 -2.13207,-1.916 -20.115834,-1.37394 -21.467969,0.90576 z"
       id="path848-6-4"
       inkscape:connector-curvature="0"
       sodipodi:nodetypes="cccc" />
    <path
       style="fill:#e9c6af;fill-opacity:1;stroke:none;stroke-width:0.26669815px;stroke-linecap:butt;stroke-linejoin:miter;stroke-opacity:1"
       d="m 81.948485,72.579788 c -8.83309,4.662102 -38.52983,31.482752 -16.8398,42.117972 11.42636,-4.36065 20.141622,-13.23522 16.8398,-42.117972 z"
       id="path844-9-1"
       inkscape:connector-curvature="0"
       sodipodi:nodetypes="ccc" />
    <path
       sodipodi:type="star"
       style="fill:#ffffff;fill-opacity:0.98165134;stroke:none;stroke-width:1.32291675;stroke-linecap:round;stroke-linejoin:round;stroke-miterlimit:4;stroke-dasharray:none;stroke-opacity:1;paint-order:stroke fill markers"
       id="path880-5"
       sodipodi:sides="5"
       sodipodi:cx="87.598335"
       sodipodi:cy="114.32056"
       sodipodi:r1="4.5959363"
       sodipodi:r2="2.2979681"
       sodipodi:arg1="1.0974403"
       sodipodi:arg2="1.7257588"
       inkscape:flatsided="false"
       inkscape:rounded="0"
       inkscape:randomized="0"
       d="m 89.693512,118.41114 -2.449852,-1.82015 -2.888255,0.98626 0.97402,-2.89241 -1.830507,-2.44212 3.051829,0.0326 1.756939,-2.49558 0.912114,2.91252 2.916356,0.89978 -2.488112,1.76749 z"
       inkscape:transform-center-x="-0.27289803"
       inkscape:transform-center-y="-0.32318902"
       transform="matrix(1.2455734,0,0,1.4332644,-8.4869748,-47.850919)" />
    <path
       sodipodi:type="star"
       style="fill:#ffffff;fill-opacity:0.98165134;stroke:none;stroke-width:1.32291663;stroke-linecap:round;stroke-linejoin:round;stroke-miterlimit:4;stroke-dasharray:none;stroke-opacity:1;paint-order:stroke fill markers"
       id="path882-0"
       sodipodi:sides="5"
       sodipodi:cx="497.08405"
       sodipodi:cy="-141.01347"
       sodipodi:r1="2.5180888"
       sodipodi:r2="1.2590446"
       sodipodi:arg1="0.98279372"
       sodipodi:arg2="1.6111123"
       inkscape:flatsided="false"
       inkscape:rounded="0"
       inkscape:randomized="0"
       d="m 498.48083,-138.9183 -1.44753,-0.83715 -1.51026,0.71784 0.34887,-1.63538 -1.1494,-1.21451 1.66314,-0.17356 0.79989,-1.46846 0.67901,1.52811 1.64376,0.30696 -1.2435,1.11799 z"
       inkscape:transform-center-x="-0.031371442"
       inkscape:transform-center-y="-0.21405014"
       transform="matrix(1.0004036,0,0,1.0156399,-396.44044,268.20731)" />
    <path
       sodipodi:type="star"
       style="fill:#ffffff;fill-opacity:0.98165134;stroke:none;stroke-width:1.32291675;stroke-linecap:round;stroke-linejoin:round;stroke-miterlimit:4;stroke-dasharray:none;stroke-opacity:1;paint-order:stroke fill markers"
       id="path884-0"
       sodipodi:sides="5"
       sodipodi:cx="91.589149"
       sodipodi:cy="128.28841"
       sodipodi:r1="1.8558352"
       sodipodi:r2="0.9279176"
       sodipodi:arg1="0.93804749"
       sodipodi:arg2="1.566366"
       inkscape:flatsided="false"
       inkscape:rounded="0"
       inkscape:randomized="0"
       d="m 92.686623,129.78496 -1.093363,-0.56865 -1.088281,0.57832 0.202947,-1.21557 -0.886304,-0.85631 1.218791,-0.18262 0.540515,-1.10754 0.550307,1.10271 1.220361,0.17181 -0.878683,0.86413 z"
       inkscape:transform-center-x="0.0021066239"
       inkscape:transform-center-y="-0.15142199"
       transform="matrix(0.83075259,0,0,0.86494148,28.470405,18.518263)" />
  </g>
</svg>
