<?xml version="1.0" encoding="UTF-8" standalone="no"?>
<!-- Created with Inkscape (http://www.inkscape.org/) -->

<svg
   xmlns:dc="http://purl.org/dc/elements/1.1/"
   xmlns:cc="http://creativecommons.org/ns#"
   xmlns:rdf="http://www.w3.org/1999/02/22-rdf-syntax-ns#"
   xmlns:svg="http://www.w3.org/2000/svg"
   xmlns="http://www.w3.org/2000/svg"
   xmlns:sodipodi="http://sodipodi.sourceforge.net/DTD/sodipodi-0.dtd"
   xmlns:inkscape="http://www.inkscape.org/namespaces/inkscape"
   width="750"
   height="1000"
   viewBox="0 0 198.4375 264.58334"
   version="1.1"
   id="svg922"
   inkscape:version="0.92.2 (5c3e80d, 2017-08-06)"
   sodipodi:docname="licorne-steps.svg">
  <defs
     id="defs916" />
  <sodipodi:namedview
     id="base"
     pagecolor="#ffffff"
     bordercolor="#666666"
     borderopacity="1.0"
     inkscape:pageopacity="0.0"
     inkscape:pageshadow="2"
     inkscape:zoom="1.373431"
     inkscape:cx="1892.7973"
     inkscape:cy="475.94312"
     inkscape:document-units="px"
     inkscape:current-layer="layer1"
     showgrid="false"
     units="px"
     inkscape:pagecheckerboard="true"
     inkscape:showpageshadow="false"
     inkscape:window-width="1920"
     inkscape:window-height="1017"
     inkscape:window-x="-8"
     inkscape:window-y="-8"
     inkscape:window-maximized="1" />
  <metadata
     id="metadata919">
    <rdf:RDF>
      <cc:Work
         rdf:about="">
        <dc:format>image/svg+xml</dc:format>
        <dc:type
           rdf:resource="http://purl.org/dc/dcmitype/StillImage" />
        <dc:title />
      </cc:Work>
    </rdf:RDF>
  </metadata>
  <g
     inkscape:label="Calque 1"
     inkscape:groupmode="layer"
     id="layer1"
     transform="translate(0,-32.416659)">
    <path
       style="fill:#00c800;fill-opacity:0.33333333;stroke:#ff0000;stroke-width:0.26458335px;stroke-linecap:butt;stroke-linejoin:miter;stroke-opacity:1"
       d="m 56.024326,214.34018 c -2.454799,13.11498 -6.278661,49.97298 -5.596949,68.1144 l 35.895548,-0.11147 c 0.494602,-3.52636 1.040072,-6.48964 3.56725,-7.91485 2.038652,1.58244 2.644067,4.22961 2.34102,8.36077 l 29.652845,-0.5574 c 0.22966,-9.77592 0.3463,-44.48111 -5.16581,-68.97589"
       id="path828-1"
       inkscape:connector-curvature="0"
       sodipodi:nodetypes="ccccccc" />
    <path
       style="fill:none;stroke:#f70000;stroke-width:0.26458335px;stroke-linecap:butt;stroke-linejoin:miter;stroke-opacity:1"
       d="M 75.955576,82.465121 120.21189,36.090748 c 2.1268,-1.866687 4.48604,-2.746405 5.01646,1.560676 L 116.3102,101.75061 C 99.071167,101.33271 80.044807,103.7512 75.955576,82.465121 Z"
       id="path830-1"
       inkscape:connector-curvature="0"
       sodipodi:nodetypes="ccccc" />
    <path
       style="fill:none;stroke:#0000ff;stroke-width:0.26458335px;stroke-linecap:butt;stroke-linejoin:miter;stroke-opacity:1"
       d="M 151.64837,89.376684 C 131.21864,69.266953 108.25758,66.313991 85.208156,63.959962 33.424988,58.610472 33.678808,106.23483 11.410477,124.60337 c 4.682029,1.95086 9.364059,1.19274 14.046089,0.22295 4.229459,9.94283 -8.566529,21.77737 -19.842889,33.44306 4.260979,0.75962 9.18779,0.9644 18.728119,-2.67544 -20.753319,20.97179 -31.44109,40.69652 -18.728119,57.52205 6.006479,-4.35893 10.8572,-5.88101 13.600179,-2.22954 -0.1782,13.61323 -4.59914,22.70087 -9.1411,31.65943 57.815,0.42496 94.498154,-101.55828 141.575614,-153.169196 z"
       id="path832-7"
       inkscape:connector-curvature="0"
       sodipodi:nodetypes="cccccccccc" />
    <path
       style="fill:none;stroke:#0000ff;stroke-width:0.26458335px;stroke-linecap:butt;stroke-linejoin:miter;stroke-opacity:1"
       d="m 59.234047,256.81492 c -13.11474,-0.81182 -24.51507,0.24556 -40.689051,-3.90169 2.55042,3.5808 4.87464,7.38782 9.1411,9.25258 -2.21269,7.60807 -6.649089,12.54769 -11.81654,16.61005 4.060461,2.57124 8.83283,4.64962 16.72152,4.57055 1.43473,4.85712 2.145861,9.51689 0.334431,13.4887 9.695828,-1.37459 16.12102,-7.47344 23.298669,-12.48541 z"
       id="path842-4"
       inkscape:connector-curvature="0"
       sodipodi:nodetypes="cccccccc" />
    <path
       style="fill:none;stroke:#000000;stroke-width:0.26458335px;stroke-linecap:butt;stroke-linejoin:miter;stroke-opacity:1"
       d="m 69.935826,73.435493 c -8.829519,4.590309 -38.51429,30.997947 -16.833008,41.469387 11.421747,-4.2935 20.133498,-13.0314 16.833008,-41.469387 z"
       id="path844-9"
       inkscape:connector-curvature="0"
       sodipodi:nodetypes="ccc" />
    <path
       style="fill:#00c800;fill-opacity:0.33333333;stroke:#00fd00;stroke-width:0.26458335px;stroke-linecap:butt;stroke-linejoin:miter;stroke-opacity:1"
       d="m 82.755667,118.91805 c -3.286681,-6.29958 5.89924,-9.23084 9.029618,-10.5903 4.230741,-1.18833 7.24263,-4.32684 10.473235,-7.11539 -0.92123,2.16448 -1.4601,4.13779 -1.33212,5.77767 2.17355,-2.60087 5.71511,-4.6277 8.73576,-5.65383 -1.0279,2.01217 -2.0519,3.44198 -1.26682,5.65383 2.57244,-2.59697 4.9229,-3.08508 7.29217,-3.75196 -0.38107,1.21349 -1.29542,2.30875 -0.93798,3.64048 2.53271,0.12593 5.75675,0.2527 5.73941,1.55507 0.0126,1.33446 -3.8647,-1.12527 -3.60657,2.6207 0.81096,11.76851 -4.21683,21.91724 -10.46937,23.00425 -12.327994,2.14323 -17.240893,-13.36888 -14.504565,-23.84464 0.277501,-1.06236 -10.188569,2.81152 -9.152768,8.70412"
       id="path846-9"
       inkscape:connector-curvature="0"
       sodipodi:nodetypes="cccccccccsssc" />
    <path
       style="fill:none;stroke:#0000fa;stroke-width:0.26458335px;stroke-linecap:butt;stroke-linejoin:miter;stroke-opacity:1"
       d="m 93.675847,109.764 c -2.276581,5.26953 0.32562,22.01136 10.873553,22.97718 10.42233,-0.78786 12.54649,-21.89794 10.58575,-23.86899 -2.13121,-1.88649 -20.107724,-1.35279 -21.459303,0.89181 z"
       id="path848-6"
       inkscape:connector-curvature="0"
       sodipodi:nodetypes="cccc" />
    <path
       style="fill:none;stroke:#000000;stroke-width:0.26458335px;stroke-linecap:butt;stroke-linejoin:miter;stroke-opacity:1"
       d="m 146.04151,168.6402 c -1.96017,-2.77898 -3.656,-5.58198 -2.20713,-8.67087 3.4168,-4.9093 25.42217,2.16725 24.27842,6.9367 -1.62907,3.45149 -7.94829,3.78365 -12.45452,3.78365"
       id="path850-8"
       inkscape:connector-curvature="0"
       sodipodi:nodetypes="cccc" />
    <ellipse
       style="fill:#00c800;fill-opacity:0.33333333;stroke:#0000fa;stroke-width:0;stroke-linecap:round;stroke-linejoin:round;stroke-miterlimit:4;stroke-dasharray:none;stroke-opacity:1;paint-order:stroke fill markers"
       id="path852-8"
       cx="98.250938"
       cy="234.9097"
       rx="14.046083"
       ry="25.360983" />
    <path
       style="fill:none;stroke:#000000;stroke-width:0.26458335px;stroke-linecap:butt;stroke-linejoin:miter;stroke-opacity:1"
       d="m 34.108536,255.66415 -0.625639,12.74436 29.318411,-3.23283 0.157548,-12.34927 z"
       id="path854-9"
       inkscape:connector-curvature="0" />
    <path
       style="fill:none;stroke:#000000;stroke-width:0.26458335px;stroke-linecap:butt;stroke-linejoin:miter;stroke-opacity:1"
       d="m 121.18137,248.19677 0.69483,16.49218 7.85204,-0.44907 -0.87081,-16.45834 z"
       id="path856-3"
       inkscape:connector-curvature="0"
       sodipodi:nodetypes="ccccc" />
    <path
       style="fill:none;stroke:#000000;stroke-width:0.26458335px;stroke-linecap:butt;stroke-linejoin:miter;stroke-opacity:1"
       d="m 92.231195,282.78903 -0.29045,10.85092 29.756485,-0.14131 0.18681,-11.26701 z"
       id="path858-0"
       inkscape:connector-curvature="0"
       sodipodi:nodetypes="ccccc" />
    <path
       style="fill:none;stroke:#000000;stroke-width:0.26458335px;stroke-linecap:butt;stroke-linejoin:miter;stroke-opacity:1"
       d="m 50.427377,282.45458 -0.44591,10.92474 35.784068,0.22296 0.55739,-11.25917 z"
       id="path860-9"
       inkscape:connector-curvature="0" />
    <path
       style="fill:#00c800;fill-opacity:0.33333333;stroke:#f70000;stroke-width:0.26458335px;stroke-linecap:butt;stroke-linejoin:miter;stroke-opacity:1"
       d="m 76.201636,214.67461 c -10.85174,8.00986 -12.032679,25.51737 -13.24278,38.1518 l -28.85032,2.83774 c 1.94691,-20.86873 -2.92572,-55.8423 20.021809,-70.31283 l -0.945909,-53.75936 c -17.993,-0.033 -25.704131,-10.69634 -26.17025,-28.85032 2.0011,-27.090199 28.977882,-44.783908 57.385361,-50.133368 l -0.157652,36.41763 92.541775,1.576519 c 6.95042,0.546042 13.23162,2.012252 13.55807,11.666259 l 0.31531,77.72247 c -1.55115,6.96931 -5.26032,8.18393 -9.30147,8.51321 l -68.26335,0.15766 c 3.98519,1.0496 7.3166,3.82067 9.28485,9.12719 2.24501,8.24201 5.24274,28.45118 6.48035,49.99233 l -7.67606,0.41523 c -0.54378,-11.13192 -1.75265,-22.67514 -4.46314,-34.94103"
       id="path826-9"
       inkscape:connector-curvature="0"
       sodipodi:nodetypes="ccccccccccccccccc" />
    <path
       style="fill:#00c800;fill-opacity:0.33333333;stroke:#ff0000;stroke-width:1px;stroke-linecap:butt;stroke-linejoin:miter;stroke-opacity:1"
       d="m 1223.7148,681.68555 -229.39449,4.09765 c -9.27798,49.56843 -21.15465,188.10314 -27.07308,249.71871 l 134.63787,7.30043 c 5.4733,-12.81313 2.8818,-14.52705 12.4333,-19.91367 7.7051,5.98088 13.0426,10.75805 18.8476,25.59961 36.2702,-9.42999 72.5404,-26.86373 108.8106,-44.3379 -26.417,-83.80267 -4.3773,-130.31657 -18.2618,-222.46483 z"
       transform="matrix(0.26458334,0,0,0.26458334,0,32.416659)"
       id="path828-1-0"
       inkscape:connector-curvature="0"
       sodipodi:nodetypes="cccccccc" />
    <path
       style="fill:none;stroke:#f70000;stroke-width:0.26458335px;stroke-linecap:butt;stroke-linejoin:miter;stroke-opacity:1"
       d="m 283.01206,81.988459 44.25631,-46.37437 c 2.1268,-1.866687 4.48604,-2.746405 5.01646,1.560676 l -8.91815,64.099185 c -17.23903,-0.4179 -36.26539,2.00059 -40.35462,-19.285491 z"
       id="path830-1-3"
       inkscape:connector-curvature="0"
       sodipodi:nodetypes="ccccc" />
    <path
       style="fill:none;stroke:#0000ff;stroke-width:0.26458335px;stroke-linecap:butt;stroke-linejoin:miter;stroke-opacity:1"
       d="M 358.70485,88.900029 C 338.27512,68.790294 315.31406,65.837332 292.26464,63.483303 c -51.78317,-5.34949 -51.52935,42.274867 -73.79768,60.643407 4.68203,1.95086 9.36406,1.19274 14.04609,0.22295 4.22946,9.94283 -8.56653,21.77737 -19.84289,33.44306 4.26098,0.75962 9.18779,0.9644 18.72812,-2.67544 -20.75332,20.97179 -31.44109,40.69652 -18.72812,57.52205 6.00648,-4.35893 10.8572,-5.88101 13.60018,-2.22954 -0.1782,13.61323 -4.59914,22.70087 -9.1411,31.65943 57.815,0.42496 94.49815,-101.55828 141.57561,-153.169191 z"
       id="path832-7-2"
       inkscape:connector-curvature="0"
       sodipodi:nodetypes="cccccccccc" />
    <path
       style="fill:none;stroke:#0000ff;stroke-width:0.26458335px;stroke-linecap:butt;stroke-linejoin:miter;stroke-opacity:1"
       d="m 266.29053,256.33826 c -13.11474,-0.81182 -24.51507,0.24556 -40.68905,-3.90169 2.55042,3.5808 4.87464,7.38782 9.1411,9.25258 -2.21269,7.60807 -6.64909,12.54769 -11.81654,16.61005 4.06046,2.57124 8.83283,4.64962 16.72152,4.57055 1.43473,4.85712 2.14586,9.51689 0.33443,13.4887 9.69583,-1.37459 16.12102,-7.47344 23.29867,-12.48541 z"
       id="path842-4-3"
       inkscape:connector-curvature="0"
       sodipodi:nodetypes="cccccccc" />
    <path
       style="fill:none;stroke:#000000;stroke-width:0.26458335px;stroke-linecap:butt;stroke-linejoin:miter;stroke-opacity:1"
       d="m 276.99231,72.958834 c -8.82952,4.590305 -38.51429,30.997946 -16.83301,41.469386 11.42175,-4.2935 20.1335,-13.0314 16.83301,-41.469386 z"
       id="path844-9-2"
       inkscape:connector-curvature="0"
       sodipodi:nodetypes="ccc" />
    <path
       style="fill:#00c800;fill-opacity:0.33333333;stroke:#00fd00;stroke-width:0.26458335px;stroke-linecap:butt;stroke-linejoin:miter;stroke-opacity:1"
       d="m 289.81215,118.44139 c -3.28668,-6.29958 5.89924,-9.23084 9.02962,-10.5903 4.23074,-1.18833 7.24263,-4.32684 10.47323,-7.11539 -0.92123,2.16448 -1.4601,4.13779 -1.33212,5.77767 2.17355,-2.60087 5.71511,-4.6277 8.73576,-5.65383 -1.0279,2.01217 -2.0519,3.44198 -1.26682,5.65383 2.57244,-2.59697 4.9229,-3.08508 7.29217,-3.75196 -0.38107,1.21349 -1.29542,2.30875 -0.93798,3.64048 2.53271,0.12593 5.75675,0.2527 5.73941,1.55507 0.0126,1.33446 -3.8647,-1.12527 -3.60657,2.6207 0.81096,11.76851 -4.21683,21.91724 -10.46937,23.00425 -12.32799,2.14323 -17.24089,-13.36888 -14.50456,-23.84464 0.2775,-1.06236 -10.18857,2.81152 -9.15277,8.70412"
       id="path846-9-1"
       inkscape:connector-curvature="0"
       sodipodi:nodetypes="cccccccccsssc" />
    <path
       style="fill:none;stroke:#0000fa;stroke-width:0.26458335px;stroke-linecap:butt;stroke-linejoin:miter;stroke-opacity:1"
       d="m 300.73233,109.28734 c -2.27658,5.26953 0.32562,22.01136 10.87355,22.97718 10.42233,-0.78786 12.54649,-21.89794 10.58575,-23.86899 -2.13121,-1.88649 -20.10772,-1.35279 -21.4593,0.89181 z"
       id="path848-6-7"
       inkscape:connector-curvature="0"
       sodipodi:nodetypes="cccc" />
    <path
       style="fill:none;stroke:#000000;stroke-width:0.26458335px;stroke-linecap:butt;stroke-linejoin:miter;stroke-opacity:1"
       d="m 353.09799,168.16354 c -1.96017,-2.77898 -3.656,-5.58198 -2.20713,-8.67087 3.4168,-4.9093 25.42217,2.16725 24.27842,6.9367 -1.62907,3.45149 -7.94829,3.78365 -12.45452,3.78365"
       id="path850-8-1"
       inkscape:connector-curvature="0"
       sodipodi:nodetypes="cccc" />
    <ellipse
       style="fill:#00c800;fill-opacity:0.33333333;stroke:#0000fa;stroke-width:0;stroke-linecap:round;stroke-linejoin:round;stroke-miterlimit:4;stroke-dasharray:none;stroke-opacity:1;paint-order:stroke fill markers"
       id="path852-8-9"
       cx="305.30743"
       cy="234.43303"
       rx="14.046083"
       ry="25.360983" />
    <path
       style="fill:none;stroke:#000000;stroke-width:0.26458335px;stroke-linecap:butt;stroke-linejoin:miter;stroke-opacity:1"
       d="m 255.42059,257.49905 5.63659,8.31613 24.59743,-7.32712 -3.98807,-7.72555 z"
       id="path854-9-9"
       inkscape:connector-curvature="0"
       sodipodi:nodetypes="ccccc" />
    <path
       style="fill:none;stroke:#000000;stroke-width:0.3489137px;stroke-linecap:butt;stroke-linejoin:miter;stroke-opacity:1"
       d="m 305.12058,231.15293 -6.92958,4.24392 6.5055,7.52888 9.67097,-4.45253 z"
       id="path856-3-1"
       inkscape:connector-curvature="0"
       sodipodi:nodetypes="ccccc" />
    <path
       style="fill:none;stroke:#000000;stroke-width:0.26458335px;stroke-linecap:butt;stroke-linejoin:miter;stroke-opacity:1"
       d="m 299.81685,283.37086 3.02603,6.6908 c 10.50486,-2.29154 19.74655,-6.47783 28.81864,-10.91852 -2.77745,-6.74908 -4.21763,-10.42605 -3.05521,-7.50335 -9.24475,4.49659 -18.48181,9.00599 -28.78946,11.73107 z"
       id="path858-0-3"
       inkscape:connector-curvature="0"
       sodipodi:nodetypes="ccccc" />
    <path
       style="fill:none;stroke:#000000;stroke-width:0.26458335px;stroke-linecap:butt;stroke-linejoin:miter;stroke-opacity:1"
       d="m 255.9175,279.93488 -0.65041,10.72015 c 11.92802,0.0743 23.65172,1.51083 35.57974,1.58513 l 0.6936,-10.37374 z"
       id="path860-9-0"
       inkscape:connector-curvature="0"
       sodipodi:nodetypes="ccccc" />
    <path
       style="fill:#00c800;fill-opacity:0.33333333;stroke:#f70000;stroke-width:1px;stroke-linecap:butt;stroke-linejoin:miter;stroke-opacity:1"
       d="M 1101.5664,74.513672 C 994.19955,94.732103 892.23899,161.60598 884.67578,263.99414 c 1.76171,68.61347 30.90707,108.91629 98.91211,109.04102 l 3.57422,203.18359 c -72.16875,76.53488 -63.94562,220.36792 -21.79297,274.48633 l 99.19726,-25.46094 c -31.8315,-52.1208 -34.9988,-107.92378 6.0156,-138.19726 l 153.1328,-5.36133 c 10.2444,46.35927 -70.5032,69.44364 -70.5032,69.44364 l 34.9489,27.66715 c 65.2204,-33.36054 65.4281,-124.41692 56.943,-155.56782 -7.439,-20.05614 -20.0296,-30.52911 -35.0918,-34.4961 l 258.002,-0.5957 c 15.2736,-1.24452 29.2936,-5.83508 35.1562,-32.17578 l -1.1933,-293.75391 c -1.2339,-36.48756 -24.9729,-42.02994 -51.2422,-44.09375 l -349.7637,-5.95898 z"
       transform="matrix(0.26458334,0,0,0.26458334,0,32.416659)"
       id="path826-9-5"
       inkscape:connector-curvature="0"
       sodipodi:nodetypes="cccccccccccccccccc" />
    <path
       style="fill:none;stroke:#000000;stroke-width:0.26458335px;stroke-linecap:butt;stroke-linejoin:miter;stroke-opacity:1"
       d="m 294.83009,276.59763 c 3.16835,-1.81667 7.06003,-4.13484 12.7427,-6.15914"
       id="path884"
       inkscape:connector-curvature="0"
       sodipodi:nodetypes="cc" />
    <path
       style="fill:#00c800;fill-opacity:0.33333333;stroke:#ff0000;stroke-width:0.26458335px;stroke-linecap:butt;stroke-linejoin:miter;stroke-opacity:1"
       d="m 507.11253,227.93805 c -2.45479,13.11498 -8.59439,48.20212 -14.31502,62.39316 11.63891,3.94352 23.69348,4.57057 36.74429,5.33733 2.5489,-4.89588 3.50334,-4.18143 6.01921,-5.59911 2.54483,3.72424 2.05686,2.99992 2.54009,6.18125 l 33.81282,-0.42118 c 0.22966,-9.77592 0.3463,-44.48111 -5.16581,-68.97589"
       id="path828-1-7"
       inkscape:connector-curvature="0"
       sodipodi:nodetypes="ccccccc" />
    <path
       style="fill:none;stroke:#f70000;stroke-width:0.26458335px;stroke-linecap:butt;stroke-linejoin:miter;stroke-opacity:1"
       d="m 525.98545,96.062988 44.25632,-46.374373 c 2.1268,-1.866687 4.48604,-2.746405 5.01646,1.560676 l -8.91815,64.099189 c -17.23903,-0.4179 -36.26539,2.00059 -40.35463,-19.285492 z"
       id="path830-1-8"
       inkscape:connector-curvature="0"
       sodipodi:nodetypes="ccccc" />
    <path
       style="fill:none;stroke:#0000ff;stroke-width:0.26458335px;stroke-linecap:butt;stroke-linejoin:miter;stroke-opacity:1"
       d="M 601.67825,102.97455 C 581.24852,82.86482 558.28746,79.911858 535.23803,77.557829 c -51.78316,-5.34949 -51.52934,42.274871 -73.79767,60.643411 4.68202,1.95086 9.36405,1.19274 14.04608,0.22295 4.22946,9.94283 -8.56652,21.77737 -19.84288,33.44306 4.26097,0.75962 9.18779,0.9644 18.72811,-2.67544 -20.75331,20.97179 -31.44109,40.69652 -18.72811,57.52205 6.00647,-4.35893 10.8572,-5.88101 13.60017,-2.22954 -0.1782,13.61323 -4.59914,22.70087 -9.1411,31.65943 57.815,0.42496 94.49816,-101.55828 141.57562,-153.1692 z"
       id="path832-7-1"
       inkscape:connector-curvature="0"
       sodipodi:nodetypes="cccccccccc" />
    <path
       style="fill:none;stroke:#0000ff;stroke-width:0.26458335px;stroke-linecap:butt;stroke-linejoin:miter;stroke-opacity:1"
       d="m 509.26393,270.41279 c -13.11474,-0.81182 -24.51507,0.24556 -40.68906,-3.90169 2.55042,3.5808 4.87464,7.38782 9.1411,9.25258 -2.21269,7.60807 -6.64908,12.54769 -11.81654,16.61005 4.06047,2.57124 8.83283,4.64962 16.72152,4.57055 1.43473,4.85712 2.14587,9.51689 0.33444,13.4887 9.69582,-1.37459 16.12102,-7.47344 23.29866,-12.48541 z"
       id="path842-4-9"
       inkscape:connector-curvature="0"
       sodipodi:nodetypes="cccccccc" />
    <path
       style="fill:none;stroke:#000000;stroke-width:0.26458335px;stroke-linecap:butt;stroke-linejoin:miter;stroke-opacity:1"
       d="m 519.9657,87.03336 c -8.82951,4.590309 -38.51429,30.99795 -16.833,41.46939 11.42174,-4.2935 20.13349,-13.0314 16.833,-41.46939 z"
       id="path844-9-4"
       inkscape:connector-curvature="0"
       sodipodi:nodetypes="ccc" />
    <path
       style="fill:#00c800;fill-opacity:0.33333333;stroke:#00fd00;stroke-width:0.26458335px;stroke-linecap:butt;stroke-linejoin:miter;stroke-opacity:1"
       d="m 532.78555,132.51592 c -3.28669,-6.29958 5.89924,-9.23084 9.02961,-10.5903 4.23074,-1.18833 7.24263,-4.32684 10.47324,-7.11539 -0.92123,2.16448 -1.4601,4.13779 -1.33212,5.77767 2.17355,-2.60087 5.71511,-4.6277 8.73576,-5.65383 -1.0279,2.01217 -2.0519,3.44198 -1.26682,5.65383 2.57244,-2.59697 4.9229,-3.08508 7.29217,-3.75196 -0.38107,1.21349 -1.29542,2.30875 -0.93798,3.64048 2.53271,0.12593 5.75675,0.2527 5.73941,1.55507 0.0126,1.33446 -3.8647,-1.12527 -3.60657,2.6207 0.81096,11.76851 -4.21683,21.91724 -10.46937,23.00425 -12.328,2.14323 -17.24089,-13.36888 -14.50457,-23.84464 0.2775,-1.06236 -10.18857,2.81152 -9.15276,8.70412"
       id="path846-9-8"
       inkscape:connector-curvature="0"
       sodipodi:nodetypes="cccccccccsssc" />
    <path
       style="fill:none;stroke:#0000fa;stroke-width:0.26458335px;stroke-linecap:butt;stroke-linejoin:miter;stroke-opacity:1"
       d="m 543.70573,123.36187 c -2.27659,5.26953 0.32562,22.01136 10.87355,22.97718 10.42233,-0.78786 12.54649,-21.89794 10.58575,-23.86899 -2.13121,-1.88649 -20.10773,-1.35279 -21.4593,0.89181 z"
       id="path848-6-4"
       inkscape:connector-curvature="0"
       sodipodi:nodetypes="cccc" />
    <path
       style="fill:none;stroke:#000000;stroke-width:0.26458335px;stroke-linecap:butt;stroke-linejoin:miter;stroke-opacity:1"
       d="m 596.07139,182.23807 c -1.96017,-2.77898 -3.656,-5.58198 -2.20713,-8.67087 3.4168,-4.9093 25.42217,2.16725 24.27842,6.9367 -1.62907,3.45149 -7.94829,3.78365 -12.45452,3.78365"
       id="path850-8-7"
       inkscape:connector-curvature="0"
       sodipodi:nodetypes="cccc" />
    <ellipse
       style="fill:#00c800;fill-opacity:0.33333333;stroke:#0000fa;stroke-width:0;stroke-linecap:round;stroke-linejoin:round;stroke-miterlimit:4;stroke-dasharray:none;stroke-opacity:1;paint-order:stroke fill markers"
       id="path852-8-95"
       cx="548.28082"
       cy="248.50757"
       rx="14.046083"
       ry="25.360983" />
    <path
       style="fill:none;stroke:#000000;stroke-width:0.26458335px;stroke-linecap:butt;stroke-linejoin:miter;stroke-opacity:1"
       d="m 466.70226,248.28415 -0.35319,13.0168 28.50109,1.67109 0.42998,-10.44219 z"
       id="path854-9-7"
       inkscape:connector-curvature="0"
       sodipodi:nodetypes="ccccc" />
    <path
       style="fill:none;stroke:#000000;stroke-width:0.26458335px;stroke-linecap:butt;stroke-linejoin:miter;stroke-opacity:1"
       d="m 577.29981,262.43774 6.68851,4.26382 16.53868,-10.51364 -6.11062,-4.07147 z"
       id="path856-3-17"
       inkscape:connector-curvature="0"
       sodipodi:nodetypes="ccccc" />
    <path
       style="fill:none;stroke:#000000;stroke-width:0.26458335px;stroke-linecap:butt;stroke-linejoin:miter;stroke-opacity:1"
       d="m 538.1011,296.25068 -0.21708,10.0336 33.84309,0.81223 0.18681,-11.26701 z"
       id="path858-0-8"
       inkscape:connector-curvature="0"
       sodipodi:nodetypes="ccccc" />
    <path
       style="fill:none;stroke:#000000;stroke-width:0.26458335px;stroke-linecap:butt;stroke-linejoin:miter;stroke-opacity:1"
       d="m 492.79751,290.33121 -3.71518,10.39557 c 9.7177,1.88535 20.19546,3.7707 36.36037,5.65605 l 4.0991,-10.71429 c -13.05263,-0.93336 -25.10149,-1.28678 -36.74429,-5.33733 z"
       id="path860-9-6"
       inkscape:connector-curvature="0"
       sodipodi:nodetypes="ccccc" />
    <path
       style="fill:#00c800;fill-opacity:0.33333333;stroke:#f70000;stroke-width:0.26458335px;stroke-linecap:butt;stroke-linejoin:miter;stroke-opacity:1"
       d="m 526.23151,228.27248 c -14.12102,0.1091 -29.74126,11.62294 -30.95137,24.25737 l -28.57788,-4.2457 c 1.94691,-20.86873 15.05531,-34.86443 38.00284,-49.33496 l -1.49079,-53.75936 c -17.993,-0.033 -25.70413,-10.69634 -26.17025,-28.85032 2.0011,-27.090202 28.97789,-44.783911 57.38537,-50.133371 l -0.15766,36.417631 92.54178,1.57652 c 6.95042,0.54604 13.23162,2.01225 13.55807,11.66626 l 0.31531,77.72247 c -1.55115,6.96931 -5.26032,8.18393 -9.30147,8.51321 l -68.26335,0.15766 c 3.98519,1.0496 10.041,3.00335 12.00925,8.30987 2.24501,8.24201 -0.20606,30.6307 19.28502,41.54669 l -17.11657,10.32129 c -20.15945,-15.21851 -7.84121,-23.31824 -10.5517,-35.58413"
       id="path826-9-1"
       inkscape:connector-curvature="0"
       sodipodi:nodetypes="ccccccccccccccccc" />
  </g>
</svg>
