<?xml version="1.0" encoding="UTF-8" standalone="no"?>
<!-- Created with Inkscape (http://www.inkscape.org/) -->

<svg
   xmlns:dc="http://purl.org/dc/elements/1.1/"
   xmlns:cc="http://creativecommons.org/ns#"
   xmlns:rdf="http://www.w3.org/1999/02/22-rdf-syntax-ns#"
   xmlns:svg="http://www.w3.org/2000/svg"
   xmlns="http://www.w3.org/2000/svg"
   xmlns:sodipodi="http://sodipodi.sourceforge.net/DTD/sodipodi-0.dtd"
   xmlns:inkscape="http://www.inkscape.org/namespaces/inkscape"
   width="650"
   height="1000"
   viewBox="0 0 171.97916 264.58334"
   version="1.1"
   id="svg8"
   inkscape:version="0.92.2 (5c3e80d, 2017-08-06)"
   sodipodi:docname="ennemie.svg"
   inkscape:export-filename="D:\natha\Documents\Programming Hub\Python\ISN\Color-Dimension\game design\image.png"
   inkscape:export-xdpi="96"
   inkscape:export-ydpi="96">
  <defs
     id="defs2" />
  <sodipodi:namedview
     id="base"
     pagecolor="#ffffff"
     bordercolor="#666666"
     borderopacity="1.0"
     inkscape:pageopacity="0.0"
     inkscape:pageshadow="2"
     inkscape:zoom="2.3734375"
     inkscape:cx="385.88409"
     inkscape:cy="660.17205"
     inkscape:document-units="px"
     inkscape:current-layer="layer1"
     showgrid="false"
     units="px"
     inkscape:pagecheckerboard="true"
     inkscape:showpageshadow="false"
     inkscape:window-width="1920"
     inkscape:window-height="1017"
     inkscape:window-x="-8"
     inkscape:window-y="-8"
     inkscape:window-maximized="1" />
  <metadata
     id="metadata5">
    <rdf:RDF>
      <cc:Work
         rdf:about="">
        <dc:format>image/svg+xml</dc:format>
        <dc:type
           rdf:resource="http://purl.org/dc/dcmitype/StillImage" />
        <dc:title></dc:title>
      </cc:Work>
    </rdf:RDF>
  </metadata>
  <g
     inkscape:label="Calque 1"
     inkscape:groupmode="layer"
     id="layer1"
     transform="translate(0,-32.41665)">
    <path
       style="fill:#bdbdbd;fill-opacity:1;stroke:#000000;stroke-width:1.99999999;stroke-linecap:butt;stroke-linejoin:miter;stroke-miterlimit:4;stroke-dasharray:none;stroke-opacity:1"
       d="m 5.3918518,269.51973 c -6.393762,4.05686 -6.437609,8.71722 -0.546087,13.94168 0.08795,-6.36218 4.471949,-7.46909 7.4826052,-10.25601 -3.7653952,0.21417 -4.3224722,13.79944 1.842957,15.78294 -3.545309,-0.94312 4.476093,-13.6714 4.80414,-13.58525 -2.635359,9.21326 -0.07326,14.3789 4.616234,14.27035 -3.536799,-8.08704 3.393181,-9.78404 5.302862,-15.48044 -3.2881,7.07073 -4.417405,13.72157 4.084807,18.49895 0.06256,-4.12381 0.530077,-7.74095 5.376516,-6.29224 3.481167,-1.91203 7.718541,-2.46604 8.414666,-9.37957 C 21.392226,259.91617 13.598004,266.30723 5.3918518,269.51973"
       id="path1469"
       inkscape:connector-curvature="0"
       sodipodi:nodetypes="ccccccccccc" />
    <path
       style="fill:#878787;fill-opacity:1;stroke:#090000;stroke-width:1.99999999;stroke-linecap:butt;stroke-linejoin:miter;stroke-miterlimit:4;stroke-dasharray:none;stroke-opacity:1"
       d="m 55.098555,267.08633 c -6.214012,-7.55377 -15.345728,-8.07866 -23.844494,-10.1283 0.811577,0.13657 7.222725,5.72284 4.776434,4.76168 -6.474429,-2.54388 -24.252173,-0.42608 -23.043193,0.0819 2.803603,0.53835 6.078859,-0.86154 6.676532,2.02271 -8.300607,-0.68664 -11.9058082,2.05242 -14.2719822,5.69545 4.597417,-0.39855 6.6974762,0.98104 6.9365182,3.6857 5.552789,-3.08524 5.621585,0.10349 6.647097,2.19766 4.286419,-6.22946 6.877093,-2.37827 9.919096,-1.21007 10.357913,-1.5075 18.664368,-1.42705 9.461323,12.20669 11.913135,9.85729 14.418095,2.26071 19.107254,-1.28374 1.15484,-0.0153 1.62416,5.51745 -1.08737,5.39453 10.6164,-4.1863 13.79678,-4.01474 24.09789,-3.14298 -4.89489,-5.24506 -5.53562,-10.9152 -5.10846,-16.69204 2.16593,0.10996 4.8206,-1.57146 5.82952,2.7798 3.85841,-5.49879 2.07227,-12.68817 2.68324,-19.15963 l -24.51493,-10.421 c -0.36558,6.34556 12.346,13.82193 -2.65537,13.53597 6.10754,2.13393 -1.504465,4.75757 -1.609105,9.67569 z"
       id="path1467"
       inkscape:connector-curvature="0"
       sodipodi:nodetypes="ccscccccccccccccccc" />
    <path
       style="fill:#bdbdbd;fill-opacity:1;stroke:#000000;stroke-width:1.99999999;stroke-linecap:butt;stroke-linejoin:miter;stroke-miterlimit:4;stroke-dasharray:none;stroke-opacity:1"
       d="m 160.61192,275.45304 c 6.04956,3.7834 6.11948,8.17445 0.60016,13.13349 -0.12197,-5.99436 -4.25964,-7.01047 -7.1136,-9.61797 3.54933,0.17867 4.15766,12.97623 -1.63967,14.88308 3.33485,-0.91045 -4.30162,-12.85468 -4.6102,-12.77147 2.5398,8.66518 0.15731,13.54835 -4.26213,13.47485 3.28298,-7.64189 -3.25736,-9.19839 -5.09176,-14.5542 3.14168,6.64236 4.24662,12.9023 -3.73542,17.45609 -0.0842,-3.88535 -0.547,-7.29083 -5.10475,-5.89598 -3.29194,-1.78028 -7.2881,-2.27627 -7.98648,-8.78642 23.80823,-16.27239 31.19172,-10.29813 38.94385,-7.32147"
       id="path1469-1"
       inkscape:connector-curvature="0"
       sodipodi:nodetypes="ccccccccccc" />
    <path
       style="fill:#878787;fill-opacity:1;stroke:#090000;stroke-width:1.99999999;stroke-linecap:butt;stroke-linejoin:miter;stroke-miterlimit:4;stroke-dasharray:none;stroke-opacity:1"
       d="m 113.75986,273.46528 c 5.80889,-7.15583 14.4102,-7.70649 22.40576,-9.69001 -0.76391,0.13369 -6.77061,5.43682 -4.47144,4.51613 6.08502,-2.43677 22.84945,-0.55037 21.71339,-0.0644 -2.63845,0.52449 -5.73322,-0.77448 -6.27867,1.94694 7.81717,-0.69796 11.23108,1.86083 13.48302,5.27903 -4.33446,-0.3473 -6.30481,0.96551 -6.51344,3.51552 -5.25117,-2.87303 -5.29642,0.13201 -6.24987,2.11161 -4.07721,-5.84353 -6.49468,-2.19877 -9.35389,-1.07934 -9.76921,-1.35688 -17.59562,-1.23006 -8.84017,11.56009 -11.16489,9.36138 -13.57186,2.21871 -18.01207,-1.09231 -1.08827,-0.007 -1.49652,5.2089 1.05772,5.07641 -10.02922,-3.87943 -13.024943,-3.69827 -22.72601,-2.81357 -5.53339,-5.45391 -7.2516,-8.21887 -7.68956,-13.6596 -2.04023,0.117 5.76175,4.47525 6.92472,0.55494 -4.47211,-4.03394 -2.03057,-11.94297 -2.64598,-18.03708 l 23.03568,-9.96987 c 0.38344,5.97696 -0.62225,12.59428 13.51133,12.23276 -5.74184,2.04822 -9.47932,4.97912 -9.35052,9.61268 z"
       id="path1467-6"
       inkscape:connector-curvature="0"
       sodipodi:nodetypes="ccsccccccccccccccccc" />
    <path
       style="fill:#878787;fill-opacity:1;stroke:#000600;stroke-width:1.99999999;stroke-linecap:butt;stroke-linejoin:miter;stroke-miterlimit:4;stroke-dasharray:none;stroke-opacity:1"
       d="m 44.684628,201.79684 c -9.741626,5.50976 -11.42229,12.91192 -11.919543,20.59189 2.830754,-6.6619 7.195063,-6.65425 11.668615,-6.17151 -7.600096,5.44877 -7.846623,12.65433 -8.280955,19.81501 3.876312,-5.07681 7.927795,-8.36261 12.79784,-3.27953 0.464962,9.92627 3.700008,7.81645 -5.67946,13.67918 9.602292,2.86894 10.556592,1.13848 14.838685,3.20787 -7.163742,6.33627 -4.967468,11.88126 -3.011255,17.44658 3.536105,-6.77885 4.758195,-7.05585 9.535635,-5.22429 -2.39391,3.60343 -2.90593,6.57828 -0.87828,12.97398 2.16962,-1.14695 3.99918,-4.90192 6.77534,-1.39687 -0.36518,1.89991 -1.20622,3.8553 1.00374,5.45507 1.47353,-4.98745 2.46724,-3.23739 3.6386,-3.9818 3.93472,-0.092 4.16333,0.89636 7.11104,4.1594 2.86928,-4.32959 2.77568,-9.86928 9.48084,-12.33026 6.12034,-0.88653 7.19572,5.4121 7.695227,13.02228 5.144933,-3.26838 10.194853,-21.34463 6.918983,-26.71657 5.87176,2.05218 0.63092,6.72458 7.72275,5.67848 -7.95858,-8.23966 -2.77775,-6.42204 -4.55036,-14.02991 3.14427,-1.08207 11.85359,2.66506 15.05627,7.47205 3.66435,-8.27257 -8.68056,-31.45549 -12.79783,-30.37199 2.16584,-3.71366 6.72746,-2.16585 11.16674,-0.88676 -5.00482,-7.31649 -6.23921,-17.21613 -18.5694,-19.51393 -19.90774,0.13382 -58.564168,-36.3499 -59.723222,0.40163 z"
       id="path1489"
       inkscape:connector-curvature="0"
       sodipodi:nodetypes="cccccccccccccccccccccccc" />
    <path
       style="fill:#bdbdbd;fill-opacity:1;stroke:none;stroke-width:1.99999999;stroke-linecap:butt;stroke-linejoin:miter;stroke-opacity:1;stroke-miterlimit:4;stroke-dasharray:none"
       d="m 70.34802,264.66242 c -8.90544,-4.09468 -9.0155,-12.74729 -9.72432,-18.93296 1.88527,3.55031 4.12537,6.35538 7.95626,5.81987 -6.20324,-6.15969 -3.37214,-11.23739 0.10543,-14.27161 -1.42748,5.35845 1.75092,7.5282 5.34606,9.40943 -4.39846,-11.00087 -0.43763,-17.1622 4.71481,-22.8374 -1.95546,6.1788 0.65566,9.86674 5.15685,12.52373 2.71968,-0.87204 2.01192,-4.02902 2.61019,-6.31533 4.09925,6.92667 -0.0812,10.08991 -2.02085,14.2716 3.63914,1.83572 4.91334,-1.08195 7.88259,-4.12547 -0.0245,3.93321 -3.35326,12.73889 -11.4187,15.69152 4.70901,0.81182 9.19159,-1.69488 12.81843,-2.43109 -3.9536,10.11788 -14.93577,14.96298 -23.42678,11.19771 z"
       id="path1506"
       inkscape:connector-curvature="0"
       sodipodi:nodetypes="ccccccccccccc" />
    <path
       style="fill:#878787;fill-opacity:1;stroke:#000100;stroke-width:1.99999999;stroke-linecap:butt;stroke-linejoin:miter;stroke-miterlimit:4;stroke-dasharray:none;stroke-opacity:1"
       d="m 54.790759,66.69629 -33.45748,37.15083 c -14.7181692,9.34449 -17.1168532,23.03703 -12.1663542,39.32339 3.2187972,-8.35449 5.8123772,-9.20641 8.4729972,-10.8628 -5.957673,12.21678 -2.721346,23.41199 6.952203,33.89197 1.070774,-4.31146 2.767592,-7.05783 4.996895,-8.47298 5.431153,-0.22016 11.505871,32.16727 11.297331,28.02605 -0.58742,-11.66515 11.222377,-12.63092 8.690249,-11.29732 -0.754687,9.03432 0.696239,17.46715 6.30044,24.76723 1.45197,-6.86308 3.76221,-9.7208 6.9522,-8.473 -0.76357,9.01439 4.77192,12.51709 8.25575,17.81502 0.6824,-3.17878 -0.41059,-6.80139 4.56237,-8.90752 2.76254,10.13824 8.80804,15.68032 14.33892,21.9429 -3.11033,-5.93835 -4.45432,-11.87668 -0.65177,-17.81503 7.43996,6.49778 15.37501,12.84993 13.25264,22.16015 3.70341,-10.02193 7.36776,-20.51303 11.9491,-19.98758 l 1.73805,4.9969 c 3.99961,-14.9811 8.51499,-16.98741 12.81812,-24.33271 4.62324,-3.36608 7.22021,-0.14687 9.55928,3.91061 8.53961,-9.85153 1.16268,-16.35223 -0.21726,-24.11546 4.70537,2.79275 9.93929,4.26415 16.946,1.30356 -6.12847,-4.22743 -8.00584,-12.70595 -10.86281,-20.20485 2.98533,-0.0324 6.08579,-0.29493 7.3867,3.04157 -5.44154,-10.01905 -0.86299,-14.57262 -0.65177,-21.50835 7.02166,-0.9306 8.30142,5.1079 9.9938,10.64555 6.26278,-5.73663 2.69008,-15.51664 -0.65178,-25.20176 L 126.91985,76.255567"
       id="path1385"
       inkscape:connector-curvature="0"
       sodipodi:nodetypes="ccccccscccccccccccccccccccc" />
    <path
       style="fill:#878787;fill-opacity:1;stroke:#020000;stroke-width:1.99999999;stroke-linecap:butt;stroke-linejoin:miter;stroke-miterlimit:4;stroke-dasharray:none;stroke-opacity:1"
       d="M 69.56419,98.198447 C 60.62528,76.313909 50.199642,53.287833 26.330173,36.932171 c 1.082393,6.384275 4.530455,13.162826 -0.869024,18.466788 -1.649194,-3.215614 -2.694292,-6.895115 -6.734945,-8.907509 3.730187,14.560931 3.91403,27.791985 3.041589,40.626927 -1.802299,-2.476533 -3.157225,-5.73597 -7.16946,-4.345119 6.21202,8.467176 6.800143,14.889314 6.734946,21.073862"
       id="path1379"
       inkscape:connector-curvature="0"
       sodipodi:nodetypes="ccccccc" />
    <path
       style="fill:#878787;fill-opacity:1;stroke:#000000;stroke-width:2;stroke-linecap:butt;stroke-linejoin:miter;stroke-miterlimit:4;stroke-dasharray:none;stroke-opacity:1"
       d="m 126.11334,76.754842 c 7.85256,-5.817739 21.54543,-29.297821 21.01137,-34.608519 1.80448,2.969171 1.73815,5.938342 0.65176,8.907509 7.05042,-3.063398 10.68827,-10.904398 14.99068,-17.815018 1.38885,-3.549283 1.43418,11.204872 -2.17257,19.335814 -0.44044,0.992973 5.43143,-4.996896 5.43143,-4.996896 3.44379,12.616007 5.26771,27.999891 -4.9969,45.406563 3.6981,-3.173366 6.72805,-4.787694 8.69025,-3.910609 -9.12772,9.342452 -9.62468,22.700694 -8.08682,29.246614"
       id="path1381"
       inkscape:connector-curvature="0"
       sodipodi:nodetypes="ccccscccc" />
    <path
       style="fill:#878787;fill-opacity:1;stroke:#000000;stroke-width:1.99999999;stroke-linecap:butt;stroke-linejoin:miter;stroke-miterlimit:4;stroke-dasharray:none;stroke-opacity:1"
       d="M 54.790759,66.69629 C 52.901661,63.681189 49.578773,47.752168 50.880143,48.2295 c 1.960477,0.719092 7.989947,10.211048 5.431407,10.211048 8.28138,-4.646353 14.68382,-4.90848 21.29112,-5.648666 -2.22627,-2.25122 -7.1158,-3.61468 -14.55617,-4.127869 12.14232,-4.095775 14.87539,-0.350497 20.63935,0.869025 -1.31755,-5.431409 -3.65326,-10.862816 0,-16.294224 2.09322,6.073736 4.32265,11.977184 8.69025,15.207943 6.955207,-2.360786 8.01151,-8.40839 10.64558,-13.469892 3.36792,7.692975 2.55561,14.245886 -0.43453,20.204839 16.96347,5.100149 20.30467,13.161661 24.3327,21.073863"
       id="path1383"
       inkscape:connector-curvature="0"
       sodipodi:nodetypes="csccccccccc" />
    <path
       style="fill:none;stroke:#000000;stroke-width:1.99999999;stroke-linecap:butt;stroke-linejoin:miter;stroke-miterlimit:4;stroke-dasharray:none;stroke-opacity:1"
       d="m 33.282377,92.115277 c 3.265951,-7.818857 3.034478,-16.803524 -0.651768,-26.939783 11.619662,9.116603 17.987872,29.43123 19.987581,40.626946 -4.361399,-1.67459 -8.373442,-1.60239 -13.252635,-5.865919"
       id="path1387"
       inkscape:connector-curvature="0"
       sodipodi:nodetypes="cccc" />
    <path
       style="fill:none;stroke:#0000f6;stroke-width:1.37807465;stroke-linecap:butt;stroke-linejoin:miter;stroke-miterlimit:4;stroke-dasharray:none;stroke-opacity:1"
       d="m 74.77835,112.75464 c 1.38493,2.76733 1.96962,6.09486 6.08316,6.95219 -0.15649,-2.44352 0.52418,-3.63128 1.52081,-4.34512 1.62766,4.52866 5.1116,6.84113 8.25573,9.55928"
       id="path1389"
       inkscape:connector-curvature="0"
       sodipodi:nodetypes="cccc" />
    <path
       style="fill:#bdbdbd;fill-opacity:1;stroke:none;stroke-width:0.96465224;stroke-linecap:butt;stroke-linejoin:miter;stroke-miterlimit:4;stroke-dasharray:none;stroke-opacity:1"
       d="m 61.74297,113.18913 c -4.04438,0.3041 -8.437584,0.15469 -16.5115,-4.77963 3.63645,4.15258 1.843545,5.28884 2.172565,7.60398 -17.981658,-15.27113 -24.482465,-4.90168 -30.415881,6.73495 6.707553,-4.82877 7.973656,-3.7214 10.4283,-3.91062 -0.889222,0 -9.128055,31.93668 -5.648661,30.85041 3.516203,-5.52923 11.524887,-8.6946 16.728736,-7.82124 -2.636255,3.97222 -3.360401,7.46641 -1.086281,10.21106 0.725712,-3.03092 1.925957,-2.74012 3.04159,-3.04159 2.122151,5.58633 7.740517,10.4734 4.345128,17.16323 3.909662,0.73321 4.966504,-2.60909 6.083177,-5.86591 6.115067,10.39354 6.855337,22.57866 20.639367,30.41589 0.34935,-2.53865 0.98039,-3.38712 1.73804,-3.47611 4.26078,4.01455 10.27307,7.4902 9.55927,13.0354 2.78228,-5.82859 6.67791,-4.97711 10.21105,-6.30044 7.67375,2.91046 9.41393,7.91511 10.21105,13.25262 10.29748,-7.93584 19.84557,-16.76159 23.68093,-32.37119 1.99768,-0.97404 4.16469,-1.61955 8.24484,1.44625 -3.08523,-3.90336 -1.32949,-10.02172 0.22816,-14.69888 -9.34473,8.60816 -20.37819,11.18513 -32.58844,9.55927 -0.69106,-8.40317 -2.14708,-16.32826 3.4761,-28.67782 31.5003,-9.49169 34.96363,-22.53236 34.54376,-36.06456 -0.24073,-5.12266 -3.8269,-10.245313 -7.69132,-15.367963 -2.29899,-7.361464 -0.65022,-8.217244 4.64973,-15.591069 -4.86129,-0.742319 -8.44775,2.555253 -11.51459,6.30043 -4.32393,-7.278084 -7.77592,-14.990682 -22.26878,-21.399743 -10.06065,-3.472793 -32.65495,-3.4157 -38.34761,2.360264 -3.88705,4.401277 3.48929,15.969649 18.43353,22.731439 -3.60387,1.156684 -6.65784,3.279065 -12.59712,2.150726 4.16749,4.798632 9.76895,7.016105 15.97683,8.142038 C 77.80206,98.266348 75.23023,97.52919 69.56419,98.198447 63.66377,90.413885 59.87943,86.479419 52.222639,83.971605 60.14058,93.494564 62.20292,105.2025 61.74297,113.18913 Z"
       id="path1399"
       inkscape:connector-curvature="0"
       sodipodi:nodetypes="ccccccccccccccccccccccccccccccccc" />
    <path
       style="fill:none;stroke:#000000;stroke-width:1.99999999;stroke-linecap:butt;stroke-linejoin:miter;stroke-miterlimit:4;stroke-dasharray:none;stroke-opacity:1"
       d="m 77.76083,183.39646 c -1.26653,-3.40368 -0.39004,-6.80737 1.52078,-10.21105 3.74984,-1.60707 15.73863,13.40707 16.51147,14.33892 2.91092,3.50978 13.83592,-0.99703 10.42832,-3.04159"
       id="path1391"
       inkscape:connector-curvature="0"
       sodipodi:nodetypes="ccsc" />
    <path
       style="fill:none;stroke:#000000;stroke-width:1.99999999;stroke-linecap:butt;stroke-linejoin:miter;stroke-miterlimit:4;stroke-dasharray:none;stroke-opacity:1"
       d="m 154.72867,62.785673 c -9.40735,10.935235 -31.55203,21.870472 -8.69025,32.805708 3.08625,-1.936432 6.41005,-3.72442 4.99689,-8.473004"
       id="path1393"
       inkscape:connector-curvature="0"
       sodipodi:nodetypes="ccc" />
    <path
       style="fill:#ff4c4e;fill-opacity:1;stroke:#000000;stroke-width:3.44518685;stroke-linecap:round;stroke-linejoin:round;stroke-miterlimit:4;stroke-dasharray:none;stroke-opacity:1"
       d="m 72.55148,129.9722 c -4.18351,-0.43278 -13.68528,21.55348 -2.77003,27.31999 11.95942,6.31814 24.16357,-7.00275 22.3774,-11.73185 C 81.69452,140.71529 74.17263,131.7508 66.52261,122.96569"
       id="path1395"
       inkscape:connector-curvature="0"
       sodipodi:nodetypes="cscc" />
    <path
       style="fill:#ff4c4d;fill-opacity:1;stroke:#000000;stroke-width:3.44518685;stroke-linecap:round;stroke-linejoin:round;stroke-miterlimit:4;stroke-dasharray:none;stroke-opacity:1"
       d="m 135.28423,139.6944 c 0.0952,12.32007 -1.16641,24.13571 -24.87584,22.16017 -0.0228,-5.70451 1.54406,-10.8792 4.99689,-15.4252 21.42687,-4.22799 21.16519,-10.15705 29.32961,-15.42521"
       id="path1397"
       inkscape:connector-curvature="0"
       sodipodi:nodetypes="cccc" />
    <path
       style="fill:#00000b;fill-opacity:1;stroke:none;stroke-width:0.36461556px;stroke-linecap:butt;stroke-linejoin:miter;stroke-opacity:1"
       d="m 92.15885,145.56034 -12.92676,-9.2334 c -3.5699,6.40549 -11.17362,12.1387 1.73806,21.29113 5.26538,-2.36529 9.66342,-5.66464 11.1887,-12.05773 z"
       id="path1401"
       inkscape:connector-curvature="0"
       sodipodi:nodetypes="cccc" />
    <path
       style="fill:#00000b;fill-opacity:1;stroke:none;stroke-width:0.36461556px;stroke-linecap:butt;stroke-linejoin:miter;stroke-opacity:1"
       d="m 115.40528,146.42937 -5.59435,14.17598 c 11.9229,1.86804 19.59597,-6.91499 17.92363,-15.91404 z"
       id="path1403"
       inkscape:connector-curvature="0"
       sodipodi:nodetypes="cccc" />
    <path
       style="fill:#878787;fill-opacity:1;stroke:#000100;stroke-width:1;stroke-linecap:butt;stroke-linejoin:miter;stroke-miterlimit:4;stroke-dasharray:none;stroke-opacity:1"
       d="m 469.14288,199.65802 -24.27843,26.9585 c -10.68023,6.78083 -12.42084,16.71683 -8.82851,28.53502 2.33572,-6.06243 4.21775,-6.68062 6.14843,-7.88259 -4.32319,8.86511 -1.97475,16.98892 5.04487,24.59371 0.777,-3.12861 2.0083,-5.12151 3.62599,-6.14842 3.94112,-0.15976 8.34924,23.34219 8.19791,20.33712 -0.42626,-8.46483 8.14353,-9.16564 6.30609,-8.19791 -0.54764,6.55575 0.50522,12.67502 4.57191,17.97233 1.05361,-4.98018 2.73004,-7.0539 5.04486,-6.14843 -0.55409,6.5413 3.46275,9.08303 5.99078,12.92747 0.49518,-2.30667 -0.29794,-4.93542 3.31069,-6.46373 2.00464,7.3568 6.39156,11.37842 10.40504,15.92285 -2.25702,-4.30915 -3.23228,-8.6183 -0.47296,-12.92746 5.39881,4.7151 11.15687,9.32455 9.61678,16.08051 2.68738,-7.27242 5.34642,-14.88529 8.67086,-14.50399 l 1.26122,3.62599 c 2.90231,-10.87102 6.1789,-12.3269 9.30147,-17.65703 3.35485,-2.44258 5.23935,-0.10658 6.93669,2.83775 6.19677,-7.14877 0.8437,-11.866 -0.15765,-17.49939 3.41445,2.02655 7.21244,3.09428 12.29686,0.94591 -4.44712,-3.06761 -5.80943,-9.22006 -7.8826,-14.66164 2.16632,-0.0235 4.41616,-0.21401 5.36017,2.20712 -3.94866,-7.27034 -0.62623,-10.57462 -0.47296,-15.60754 5.09527,-0.67528 6.02392,3.70655 7.252,7.72495 4.54459,-4.16279 1.95205,-11.25966 -0.47296,-18.28765 l -24.43607,-27.74676"
       id="path1385-1"
       inkscape:connector-curvature="0"
       sodipodi:nodetypes="ccccccscccccccccccccccccccc" />
    <path
       style="fill:#878787;fill-opacity:1;stroke:#020000;stroke-width:1;stroke-linecap:butt;stroke-linejoin:miter;stroke-miterlimit:4;stroke-dasharray:none;stroke-opacity:1"
       d="m 479.86322,222.51757 c -6.48653,-15.88053 -14.05189,-32.5894 -31.37277,-44.45789 0.78544,4.63275 3.28753,9.55161 -0.63061,13.40043 -1.19673,-2.33341 -1.95511,-5.00344 -4.88721,-6.46374 2.70681,10.56615 2.84022,20.16726 2.20713,29.48094 -1.30784,-1.7971 -2.29104,-4.16231 -5.20252,-3.15304 4.50775,6.14421 4.93453,10.80443 4.88721,15.29225"
       id="path1379-7"
       inkscape:connector-curvature="0"
       sodipodi:nodetypes="ccccccc" />
    <path
       style="fill:#878787;fill-opacity:1;stroke:#000000;stroke-width:1;stroke-linecap:butt;stroke-linejoin:miter;stroke-miterlimit:4;stroke-dasharray:none;stroke-opacity:1"
       d="m 520.89811,206.95701 c 5.69821,-4.22164 15.63444,-21.25997 15.2469,-25.11368 1.30943,2.15458 1.26129,4.30916 0.47295,6.46374 5.11614,-2.22296 7.75595,-7.91278 10.87799,-12.92747 1.00782,-2.57554 1.04071,8.13081 -1.57652,14.03103 -0.31962,0.72055 3.94131,-3.62599 3.94131,-3.62599 2.49898,9.1548 3.82252,20.31812 -3.626,32.94928 2.68353,-2.30276 4.88221,-3.4742 6.30608,-2.83774 -6.62353,6.77934 -7.79309,14.53133 -6.67713,19.28137"
       id="path1381-7"
       inkscape:connector-curvature="0"
       sodipodi:nodetypes="ccccscccc" />
    <path
       style="fill:#878787;fill-opacity:1;stroke:#000000;stroke-width:1;stroke-linecap:butt;stroke-linejoin:miter;stroke-miterlimit:4;stroke-dasharray:none;stroke-opacity:1"
       d="m 469.14288,199.65802 c -1.37082,-2.18791 -3.78208,-13.7468 -2.83774,-13.40043 1.42262,0.52181 5.7979,7.40965 3.9413,7.40965 6.00938,-3.37163 10.65531,-3.56184 15.4499,-4.09896 -1.61549,-1.63359 -5.16359,-2.62299 -10.56269,-2.99538 8.81108,-2.9721 10.79433,-0.25434 14.97695,0.6306 -0.95608,-3.9413 -2.65099,-7.8826 0,-11.8239 1.51894,4.40741 3.13673,8.69124 6.30608,11.03564 5.04705,-1.7131 5.81355,-6.10155 7.72496,-9.77442 2.44394,5.5824 1.85449,10.33752 -0.31531,14.66164 12.30954,3.70092 14.73408,9.55076 17.65703,15.29225"
       id="path1383-5"
       inkscape:connector-curvature="0"
       sodipodi:nodetypes="csccccccccc" />
    <path
       style="fill:none;stroke:#000000;stroke-width:1;stroke-linecap:butt;stroke-linejoin:miter;stroke-miterlimit:4;stroke-dasharray:none;stroke-opacity:1"
       d="m 453.53532,218.10331 c 2.36994,-5.67376 2.20197,-12.19348 -0.47296,-19.54886 8.43181,6.61547 13.0529,21.35678 14.50399,29.48094 -3.16485,-1.21516 -6.07619,-1.16276 -9.61677,-4.25661"
       id="path1387-8"
       inkscape:connector-curvature="0"
       sodipodi:nodetypes="cccc" />
    <path
       style="fill:none;stroke:#0000f6;stroke-width:1;stroke-linecap:butt;stroke-linejoin:miter;stroke-miterlimit:4;stroke-dasharray:none;stroke-opacity:1"
       d="m 483.64687,233.08025 c 1.00498,2.00813 1.42926,4.42275 4.41425,5.04487 -0.11356,-1.77313 0.38037,-2.63505 1.10357,-3.15304 1.18111,3.28623 3.70924,4.96426 5.99078,6.9367"
       id="path1389-4"
       inkscape:connector-curvature="0"
       sodipodi:nodetypes="cccc" />
    <path
       style="fill:#bdbdbd;fill-opacity:1;stroke:none;stroke-width:0.69999999;stroke-linecap:butt;stroke-linejoin:miter;stroke-miterlimit:4;stroke-dasharray:none;stroke-opacity:1"
       d="m 449.42052,193.24374 c 13.5428,9.33053 20.06968,24.03992 24.76722,40.15182 -2.93479,0.22067 -6.12272,0.11225 -11.98156,-3.46835 2.63879,3.01332 1.33777,3.83786 1.57653,5.51783 -13.0484,-11.08149 -17.76571,-3.55691 -22.0713,4.88721 4.86734,-3.50399 5.78609,-2.70043 7.5673,-2.83774 -0.64526,0 -6.62377,23.17486 -4.09895,22.3866 2.55153,-4.01227 8.36303,-6.30923 12.13921,-5.67547 -1.913,2.88243 -2.43848,5.41801 -0.78826,7.40965 0.52661,-2.19938 1.39757,-1.98836 2.20713,-2.20713 1.53994,4.05371 5.61691,7.60003 3.15304,12.4545 2.83705,0.53204 3.60395,-1.89328 4.41426,-4.2566 4.43739,7.54208 4.97458,16.38422 14.97695,22.07129 0.25351,-1.84216 0.71143,-2.45786 1.26121,-2.52244 3.09184,2.91317 7.45466,5.43527 6.93669,9.45913 2.01896,-4.22951 4.84582,-3.61162 7.40965,-4.57191 5.56845,2.11199 6.83122,5.74362 7.40965,9.61678 -5,-41.93494 6.49979,-59.90171 17.7513,-84.61763 3.85963,-7.03981 13.75346,-21.74371 23.71119,-27.63065 -2.33641,-0.79636 -1.10594,-2.61184 -1.57652,-3.9413 -1.73296,2.31264 -4.52513,4.2722 -8.04025,5.99078 l -1.26122,-1.4977 c -3.84289,6.39803 -5.02654,13.20517 -12.29686,19.0759 -5.50244,-4.65073 -7.21913,-9.30147 -17.73586,-13.9522 -7.30052,-2.52003 -23.69608,-2.47861 -27.82695,1.71272 -2.82064,3.19379 2.532,11.58838 13.37629,16.49507 -2.61515,0.83935 -4.83127,2.37946 -9.1411,1.56068 3.02414,3.48212 7.08884,5.09124 11.59359,5.90827 -7.01187,1.80399 -8.87813,1.26906 -12.98968,1.75472 -7.90764,-13.37383 -13.64913,-20.32783 -28.0338,-33.97153 -0.33795,2.27192 0.32967,2.64873 -2.4089,4.6977 z"
       id="path1399-8"
       inkscape:connector-curvature="0"
       sodipodi:nodetypes="ccccccccccccccccccccccccccccccc" />
    <path
       style="fill:none;stroke:#000000;stroke-width:2;stroke-linecap:butt;stroke-linejoin:miter;stroke-miterlimit:4;stroke-dasharray:none;stroke-opacity:1"
       d="m 485.854,283.84423 c -0.91905,-2.46988 -0.28303,-4.93977 1.10356,-7.40966 2.72107,-1.16616 11.42074,9.72885 11.98156,10.40505 2.11231,2.54686 10.04003,-0.72349 7.5673,-2.20713"
       id="path1391-2"
       inkscape:connector-curvature="0"
       sodipodi:nodetypes="ccsc" />
    <path
       style="fill:none;stroke:#000000;stroke-width:1;stroke-linecap:butt;stroke-linejoin:miter;stroke-miterlimit:4;stroke-dasharray:none;stroke-opacity:1"
       d="m 541.66283,196.82028 c -6.82645,7.93515 -22.89574,15.87031 -6.30608,23.80546 2.23954,-1.40518 4.65145,-2.70262 3.62599,-6.14843"
       id="path1393-3"
       inkscape:connector-curvature="0"
       sodipodi:nodetypes="ccc" />
    <path
       style="fill:#ff4c4e;fill-opacity:1;stroke:#000000;stroke-width:2.5;stroke-linecap:round;stroke-linejoin:round;stroke-miterlimit:4;stroke-dasharray:none;stroke-opacity:1"
       d="m 482.03094,245.57419 c -3.03576,-0.31404 -9.93072,15.64028 -2.01007,19.82475 8.67836,4.58475 17.5343,-5.08154 16.23816,-8.51322 -7.59344,-3.51581 -13.0517,-10.02089 -18.60294,-16.39582"
       id="path1395-1"
       inkscape:connector-curvature="0"
       sodipodi:nodetypes="cscc" />
    <path
       style="fill:#ff4c4d;fill-opacity:1;stroke:#000000;stroke-width:2.5;stroke-linecap:round;stroke-linejoin:round;stroke-miterlimit:4;stroke-dasharray:none;stroke-opacity:1"
       d="m 527.55297,252.6291 c 0.0691,8.94006 -0.84641,17.51409 -18.05116,16.08053 -0.0165,-4.13949 1.12045,-7.89449 3.626,-11.19331 15.5484,-3.06804 15.35851,-7.37044 21.28303,-11.19329"
       id="path1397-5"
       inkscape:connector-curvature="0"
       sodipodi:nodetypes="cccc" />
    <path
       style="fill:#00000b;fill-opacity:1;stroke:none;stroke-width:0.26458332px;stroke-linecap:butt;stroke-linejoin:miter;stroke-opacity:1"
       d="m 496.25903,256.88572 -9.3803,-6.70021 c -2.59051,4.64815 -8.10814,8.80845 1.26122,15.44991 3.82083,-1.71637 7.01226,-4.11056 8.11908,-8.7497 z"
       id="path1401-0"
       inkscape:connector-curvature="0"
       sodipodi:nodetypes="cccc" />
    <path
       style="fill:#00000b;fill-opacity:1;stroke:none;stroke-width:0.26458332px;stroke-linecap:butt;stroke-linejoin:miter;stroke-opacity:1"
       d="m 513.12781,257.51632 -4.05954,10.28681 c 8.65185,1.35555 14.21981,-5.01785 13.00628,-11.54801 z"
       id="path1403-3"
       inkscape:connector-curvature="0"
       sodipodi:nodetypes="cccc" />
    <path
       style="fill:#bdbdbd;fill-opacity:1;stroke:#000000;stroke-width:1.99999999;stroke-linecap:butt;stroke-linejoin:miter;stroke-miterlimit:4;stroke-dasharray:none;stroke-opacity:1"
       d="m 95.06149,237.61171 c -3.99997,1.49159 -7.97389,3.13951 -11.40595,8.03849 4.61397,-0.42475 9.61192,-2.86535 13.14401,2.38982 -7.32538,0.95715 -6.90346,5.58409 -9.23342,8.90751 3.94684,-1.3225 7.89367,-4.98652 11.840477,-2.38984 -3.578447,1.62305 -3.764977,8.03296 -1.520797,11.29734 0.97766,-5.40447 9.12479,-7.59741 9.12479,-6.08318 -4.23725,4.59859 -1.82568,9.1972 -0.86904,13.79579 1.20512,-3.56083 0.91166,-8.4439 6.73494,-7.92986 2.71545,-11.53286 2.08309,-22.21817 -17.81501,-28.02607 z"
       id="path1510"
       inkscape:connector-curvature="0"
       sodipodi:nodetypes="cccccccccc" />
    <path
       style="fill:#878787;fill-opacity:1;stroke:#000000;stroke-width:1.99999999;stroke-linecap:butt;stroke-linejoin:miter;stroke-miterlimit:4;stroke-dasharray:none;stroke-opacity:1"
       d="m 95.06149,237.61171 c 1.85687,-2.17363 4.240907,-3.92004 6.9522,-3.69336 0.0499,-2.03926 -4.67648,-0.76361 -7.66987,-1.69626 7.20739,-5.74422 11.59595,-3.89478 17.33419,-1.34306 -0.41094,-2.02772 -1.46713,-3.17324 -4.47785,-5.20097 11.65207,-1.0952 19.76351,2.8838 21.3188,8.02303 3.69654,4.99059 3.39205,16.01941 -1.64165,24.9922 -0.0947,-4.96773 -0.68238,-5.79049 -2.26897,-6.5254 -1.4034,3.62677 -1.9037,8.85415 -6.40585,10.41512 0.89848,-1.97289 1.6589,-3.97649 0,-6.5177 -0.23259,4.0078 -3.21461,4.37015 -5.32599,9.57247 -0.20768,-3.39453 -0.8159,-6.4592 -5.8659,-5.86593 -0.26643,-3.581 -2.70321,-5.3986 -7.603993,-5.21416 2.508253,-3.45913 0.951373,-5.36965 -2.607057,-6.51767 4.27228,-5.61082 1.0027,-7.90322 -1.73806,-10.42831 z"
       id="path1508"
       inkscape:connector-curvature="0"
       sodipodi:nodetypes="ccccccccccccccc" />
    <path
       style="fill:#bdbdbd;fill-opacity:1;stroke:#000000;stroke-width:1.99999999;stroke-linecap:butt;stroke-linejoin:miter;stroke-miterlimit:4;stroke-dasharray:none;stroke-opacity:1"
       d="m 61.26574,227.60553 c 3.99998,1.4916 7.9739,3.1395 11.40597,8.03847 -4.61399,-0.42474 -9.61192,-2.86534 -13.14401,2.38983 7.32537,0.95715 6.90345,5.58409 9.23339,8.90751 -3.94682,-1.32251 -7.89364,-4.98652 -11.84047,-2.38982 3.57845,1.62304 3.76498,8.03293 1.52079,11.29733 -0.97764,-5.40448 -9.124772,-7.59743 -9.124772,-6.08318 4.23724,4.5986 1.825674,9.19718 0.869029,13.79577 -1.205111,-3.56081 -0.911657,-8.44387 -6.734952,-7.92985 -2.71545,-11.53285 -2.083076,-22.21815 17.815025,-28.02606 z"
       id="path1510-8"
       inkscape:connector-curvature="0"
       sodipodi:nodetypes="cccccccccc" />
    <path
       style="fill:#878787;fill-opacity:1;stroke:#000000;stroke-width:1.99999999;stroke-linecap:butt;stroke-linejoin:miter;stroke-miterlimit:4;stroke-dasharray:none;stroke-opacity:1"
       d="m 61.26574,227.60553 c -1.85685,-2.17364 -4.24092,-3.92004 -6.952204,-3.69335 -0.04986,-2.03928 4.676484,-0.76361 7.669874,-1.69626 -7.207383,-5.74423 -11.595957,-3.8948 -17.334188,-1.34308 0.41092,-2.02773 1.467138,-3.17324 4.477848,-5.20095 -11.652082,-1.09522 -19.763512,2.88379 -21.318808,8.02301 -3.696547,4.99059 -3.392048,16.01942 1.641659,24.99221 0.09468,-4.96773 0.682383,-5.7905 2.268959,-6.52541 1.403404,3.62677 1.903686,8.85416 6.405856,10.41512 -0.898476,-1.9729 -1.658898,-3.97647 0,-6.51769 0.232579,4.0078 3.214607,4.37015 5.325979,9.57246 0.207697,-3.39453 0.815911,-6.45919 5.865923,-5.86592 0.26642,-3.58099 2.703197,-5.39859 7.603982,-5.21415 -2.508258,-3.45915 -0.95136,-5.36968 2.60708,-6.51769 -4.272289,-5.61082 -1.00271,-7.90322 1.73804,-10.4283 z"
       id="path1508-4"
       inkscape:connector-curvature="0"
       sodipodi:nodetypes="ccccccccccccccc" />
  </g>
</svg>
