<?xml version="1.0" encoding="UTF-8" standalone="no"?>
<!-- Created with Inkscape (http://www.inkscape.org/) -->

<svg
   xmlns:dc="http://purl.org/dc/elements/1.1/"
   xmlns:cc="http://creativecommons.org/ns#"
   xmlns:rdf="http://www.w3.org/1999/02/22-rdf-syntax-ns#"
   xmlns:svg="http://www.w3.org/2000/svg"
   xmlns="http://www.w3.org/2000/svg"
   xmlns:sodipodi="http://sodipodi.sourceforge.net/DTD/sodipodi-0.dtd"
   xmlns:inkscape="http://www.inkscape.org/namespaces/inkscape"
   width="750"
   height="1000"
   viewBox="0 0 198.4375 264.58334"
   version="1.1"
   id="svg922"
   inkscape:version="0.92.2 (5c3e80d, 2017-08-06)"
   sodipodi:docname="licorne-normale.svg">
  <defs
     id="defs916" />
  <sodipodi:namedview
     id="base"
     pagecolor="#ffffff"
     bordercolor="#666666"
     borderopacity="1.0"
     inkscape:pageopacity="0.0"
     inkscape:pageshadow="2"
     inkscape:zoom="1.6151782"
     inkscape:cx="329.05419"
     inkscape:cy="317.91425"
     inkscape:document-units="px"
     inkscape:current-layer="layer1"
     showgrid="false"
     units="px"
     inkscape:pagecheckerboard="true"
     inkscape:showpageshadow="false"
     inkscape:window-width="1920"
     inkscape:window-height="1017"
     inkscape:window-x="1042"
     inkscape:window-y="-8"
     inkscape:window-maximized="1"
     showguides="false" />
  <metadata
     id="metadata919">
    <rdf:RDF>
      <cc:Work
         rdf:about="">
        <dc:format>image/svg+xml</dc:format>
        <dc:type
           rdf:resource="http://purl.org/dc/dcmitype/StillImage" />
        <dc:title />
      </cc:Work>
    </rdf:RDF>
  </metadata>
  <g
     inkscape:label="Calque 1"
     inkscape:groupmode="layer"
     id="layer1"
     transform="translate(0,-32.416663)">
    <rect
       style="fill:#ff0002;fill-opacity:0.14678901;stroke:none;stroke-width:1.32221496;stroke-linecap:round;stroke-linejoin:round;stroke-miterlimit:4;stroke-dasharray:none;stroke-opacity:1;paint-order:stroke fill markers"
       id="rect886"
       width="198.4375"
       height="264.58334"
       x="-2.8421709e-014"
       y="32.416664" />
    <path
       style="fill:#ff00ff;fill-opacity:1;stroke:#000000;stroke-width:1.33369684;stroke-linecap:round;stroke-linejoin:round;stroke-miterlimit:4;stroke-dasharray:none;stroke-opacity:1"
       d="m 160.89375,90.605734 c -5.10949,-5.107645 -17.12384,-17.074767 -27.89107,-18.766598 0,0 -0.87346,6.968013 -2.39766,16.8138 -0.43553,2.813333 -53.481671,2.875957 -49.086654,-1.08436 6.446842,-5.809203 23.124044,-23.950856 23.124044,-23.950856 -3.7925,-0.896845 -7.720331,-1.266937 -7.720331,-1.266937 -51.803997,-5.434844 -51.250645,43.557557 -73.527931,62.219177 4.683913,1.98199 9.367826,1.21177 14.051739,0.22651 4.231161,10.10147 -8.569975,22.12484 -19.850871,33.97666 4.262694,0.77174 9.191486,0.97979 18.735653,-2.71813 -20.761667,21.30641 -21.2907,39.91237 -18.735653,58.43984 6.008896,-4.42847 10.861567,-5.97484 13.60565,-2.26511 -0.178271,13.83044 -4.600989,23.06307 -9.144776,32.16457 57.838253,0.43174 91.74146,-101.35417 138.83786,-153.788566 z"
       id="path832-7"
       inkscape:connector-curvature="0"
       sodipodi:nodetypes="cssssccccccccc" />
    <path
       style="fill:#ff00ff;fill-opacity:1;stroke:#000004;stroke-width:1.33369684;stroke-linecap:round;stroke-linejoin:round;stroke-miterlimit:4;stroke-dasharray:none;stroke-opacity:1"
       d="m 69.477515,254.31286 c -13.120015,-0.82477 -24.52493,0.24948 -40.705415,-3.96394 2.551446,3.63793 4.876601,7.5057 9.144777,9.40021 -2.21358,7.72946 -6.651765,12.74789 -11.821293,16.87507 4.062093,2.61227 8.836382,4.72381 16.728245,4.64348 1.435307,4.93461 2.146723,9.66873 0.334565,13.70391 9.699729,-1.39652 16.127504,-7.59268 23.308041,-12.68462 z"
       id="path842-4"
       inkscape:connector-curvature="0"
       sodipodi:nodetypes="cccccccc" />
    <path
       style="fill:#f2f2f2;fill-opacity:1;stroke:#040000;stroke-width:1.33369684;stroke-linecap:round;stroke-linejoin:round;stroke-miterlimit:4;stroke-dasharray:none;stroke-opacity:1"
       d="m 68.449402,205.13083 c -2.455788,13.32424 -6.704646,61.37806 -6.022662,79.80894 l 35.909988,-0.11325 c 0.494799,-3.58263 5.032902,-13.68854 7.561092,-15.13649 2.03948,1.60769 7.63566,10.987 7.33249,15.18407 l 30.46325,-0.56629 c 0.22976,-9.9319 -1.25053,-64.31299 -8.31754,-87.62177"
       id="path828-1"
       inkscape:connector-curvature="0"
       sodipodi:nodetypes="ccccccc" />
    <path
       style="fill:none;stroke:#000000;stroke-width:1.33369684;stroke-linecap:round;stroke-linejoin:round;stroke-miterlimit:4;stroke-dasharray:none;stroke-opacity:1"
       d="M 87.965208,81.759373 132.23932,34.645077 c 2.12765,-1.896474 4.48784,-2.790231 5.01848,1.585571 l -8.92174,65.121922 C 111.09008,100.928 92.056083,103.38508 87.965208,81.759373 Z"
       id="path830-1"
       inkscape:connector-curvature="0"
       sodipodi:nodetypes="ccccc" />
    <ellipse
       style="fill:#dddddd;fill-opacity:1;stroke:none;stroke-width:0;stroke-linecap:round;stroke-linejoin:round;stroke-miterlimit:4;stroke-dasharray:none;stroke-opacity:1;paint-order:stroke fill markers"
       id="path852-8"
       cx="110.26955"
       cy="236.63628"
       rx="14.051733"
       ry="25.765631" />
    <path
       style="fill:#ff9bd4;fill-opacity:1;stroke:#000000;stroke-width:1.33369684;stroke-linecap:round;stroke-linejoin:round;stroke-miterlimit:4;stroke-dasharray:none;stroke-opacity:1"
       d="m 46.101337,257.72188 -0.625892,12.9477 29.330202,-3.28441 0.157614,-12.54631 z"
       id="path854-9"
       inkscape:connector-curvature="0" />
    <path
       style="fill:#ff9bd4;fill-opacity:1;stroke:#000000;stroke-width:1.33369684;stroke-linecap:round;stroke-linejoin:round;stroke-miterlimit:4;stroke-dasharray:none;stroke-opacity:1"
       d="m 142.19212,249.72991 1.13017,11.4274 18.00005,-1.47801 -0.91545,-11.26611 z"
       id="path856-3"
       inkscape:connector-curvature="0"
       sodipodi:nodetypes="ccccc" />
    <path
       style="fill:#ff9bd4;fill-opacity:1;stroke:#000000;stroke-width:1.33369684;stroke-linecap:round;stroke-linejoin:round;stroke-miterlimit:4;stroke-dasharray:none;stroke-opacity:1"
       d="m 113.23031,284.8741 0.0986,11.4295 30.74232,0.0244 -0.37773,-12.02018 z"
       id="path858-0"
       inkscape:connector-curvature="0"
       sodipodi:nodetypes="ccccc" />
    <path
       style="fill:#ff9bd4;fill-opacity:1;stroke:#000000;stroke-width:1.33369684;stroke-linecap:round;stroke-linejoin:round;stroke-miterlimit:4;stroke-dasharray:none;stroke-opacity:1"
       d="m 62.42674,284.93977 -0.446089,11.09905 35.798462,0.22651 0.557615,-11.43881 z"
       id="path860-9"
       inkscape:connector-curvature="0" />
    <path
       style="fill:#f2f2f2;fill-opacity:1;stroke:#000000;stroke-width:1.33369684;stroke-linecap:round;stroke-linejoin:round;stroke-miterlimit:4;stroke-dasharray:none;stroke-opacity:1"
       d="m 81.718316,207.62082 c -7.327275,6.99087 -5.544469,34.38202 -6.755055,47.21804 l -28.861924,2.88302 c 1.947693,-21.2017 -3.501548,-72.04021 19.455212,-86.74163 l -0.37165,-39.31019 C 47.184663,131.63653 39.470431,120.80305 39.004124,102.35942 41.006028,74.836977 67.993659,56.860955 96.412564,51.426142 L 96.254851,88.424834 163.482,87.391089 c 6.35435,0.149304 10.84149,2.652538 10.56921,9.622439 l -0.16649,68.189362 c -0.98717,6.22042 -5.63746,6.88102 -9.82139,6.49882 l -34.07296,-0.26987 c 3.9868,1.06635 17.52028,9.98374 22.13698,25.17774 2.91327,6.7619 7.04143,29.91876 8.27954,51.80361 l -18.21477,1.31672 c -0.544,-11.30954 -2.4349,-31.51906 -6.41686,-44.124"
       id="path826-9"
       inkscape:connector-curvature="0"
       sodipodi:nodetypes="ccccccccccccccccc" />
    <path
       style="fill:none;stroke:#000000;stroke-width:1.33369684;stroke-linecap:round;stroke-linejoin:round;stroke-miterlimit:4;stroke-dasharray:none;stroke-opacity:1"
       d="m 141.31117,159.36747 c -1.96095,-2.82332 -3.65747,-5.67104 -2.20801,-8.80922 3.41817,-4.98763 25.43239,2.20183 24.28818,7.04738 -1.62972,3.50656 -7.95148,3.84402 -12.45953,3.84402"
       id="path850-8"
       inkscape:connector-curvature="0"
       sodipodi:nodetypes="cccc" />
    <path
       style="fill:#000000;fill-opacity:0.98165134;stroke:none;stroke-width:0.2667394px;stroke-linecap:butt;stroke-linejoin:miter;stroke-opacity:1"
       d="m 83.61692,118.14887 c -3.288002,-6.4001 5.901612,-9.37813 9.033251,-10.75928 4.232442,-1.20729 7.245543,-4.39587 10.477439,-7.22892 -0.9216,2.19902 -1.46068,4.20381 -1.33265,5.86986 2.17442,-2.64237 5.71741,-4.70154 8.73927,-5.74404 -1.02831,2.04428 -2.05272,3.4969 -1.26733,5.74404 2.57348,-2.63841 4.92488,-3.1343 7.2951,-3.81182 -0.38122,1.23285 -1.29594,2.34558 -0.93835,3.69856 2.53373,0.12794 5.75906,0.25673 5.74172,1.57988 0.0126,1.35575 -3.86626,-1.14322 -3.60802,2.66252 0.81128,11.95628 -4.21853,22.26694 -10.47359,23.37129 -12.332944,2.17743 -17.24782,-13.58219 -14.510389,-24.22509 0.277612,-1.07931 -10.192668,2.85638 -9.156451,8.843"
       id="path846-9"
       inkscape:connector-curvature="0"
       sodipodi:nodetypes="cccccccccsssc" />
    <path
       style="fill:#000080;fill-opacity:1;stroke:none;stroke-width:0.2667394px;stroke-linecap:butt;stroke-linejoin:miter;stroke-opacity:1"
       d="m 94.400345,109.20713 c -2.277496,5.35361 0.325751,22.36256 10.877915,23.34379 10.42653,-0.80043 12.55154,-22.24733 10.59002,-24.24983 -2.13207,-1.91659 -20.115811,-1.37438 -21.467935,0.90604 z"
       id="path848-6"
       inkscape:connector-curvature="0"
       sodipodi:nodetypes="cccc" />
    <path
       style="fill:#e9c6af;fill-opacity:1;stroke:none;stroke-width:0.2667394px;stroke-linecap:butt;stroke-linejoin:miter;stroke-opacity:1"
       d="M 81.943037,72.585671 C 73.109965,77.249221 43.413256,104.07821 65.103256,114.71673 76.5296,110.35472 85.244854,101.4774 81.943037,72.585671 Z"
       id="path844-9"
       inkscape:connector-curvature="0"
       sodipodi:nodetypes="ccc" />
    <path
       sodipodi:type="star"
       style="fill:#ffffff;fill-opacity:0.98165134;stroke:none;stroke-width:1.32291675;stroke-linecap:round;stroke-linejoin:round;stroke-miterlimit:4;stroke-dasharray:none;stroke-opacity:1;paint-order:stroke fill markers"
       id="path880"
       sodipodi:sides="5"
       sodipodi:cx="87.598335"
       sodipodi:cy="114.32056"
       sodipodi:r1="4.5959363"
       sodipodi:r2="2.2979681"
       sodipodi:arg1="1.0974403"
       sodipodi:arg2="1.7257588"
       inkscape:flatsided="false"
       inkscape:rounded="0"
       inkscape:randomized="0"
       d="m 89.693512,118.41114 -2.449852,-1.82015 -2.888255,0.98626 0.97402,-2.89241 -1.830507,-2.44212 3.051829,0.0326 1.756939,-2.49558 0.912114,2.91252 2.916356,0.89978 -2.488112,1.76749 z"
       inkscape:transform-center-x="-0.27291478"
       inkscape:transform-center-y="-0.31771918"
       transform="matrix(1.2455717,0,0,1.4337098,-8.4923118,-47.882462)" />
    <path
       sodipodi:type="star"
       style="fill:#ffffff;fill-opacity:0.98165134;stroke:none;stroke-width:1.32291675;stroke-linecap:round;stroke-linejoin:round;stroke-miterlimit:4;stroke-dasharray:none;stroke-opacity:1;paint-order:stroke fill markers"
       id="path882"
       sodipodi:sides="5"
       sodipodi:cx="298.74066"
       sodipodi:cy="-141.01347"
       sodipodi:r1="2.5180888"
       sodipodi:r2="1.2590445"
       sodipodi:arg1="0.98279372"
       sodipodi:arg2="1.6111123"
       inkscape:flatsided="false"
       inkscape:rounded="0"
       inkscape:randomized="0"
       d="m 300.13745,-138.9183 -1.44753,-0.83715 -1.51026,0.71784 0.34887,-1.63538 -1.1494,-1.21451 1.66314,-0.17356 0.79988,-1.46846 0.67901,1.52811 1.64376,0.30696 -1.24349,1.11799 z"
       inkscape:transform-center-x="-0.031363723"
       inkscape:transform-center-y="-0.21043197"
       transform="matrix(1.0004022,0,0,1.0159555,-198.02209,268.27398)" />
    <path
       sodipodi:type="star"
       style="fill:#ffffff;fill-opacity:0.98165134;stroke:none;stroke-width:1.32291675;stroke-linecap:round;stroke-linejoin:round;stroke-miterlimit:4;stroke-dasharray:none;stroke-opacity:1;paint-order:stroke fill markers"
       id="path884"
       sodipodi:sides="5"
       sodipodi:cx="91.589149"
       sodipodi:cy="128.28841"
       sodipodi:r1="1.8558352"
       sodipodi:r2="0.9279176"
       sodipodi:arg1="0.93804749"
       sodipodi:arg2="1.566366"
       inkscape:flatsided="false"
       inkscape:rounded="0"
       inkscape:randomized="0"
       d="m 92.686623,129.78496 -1.093363,-0.56865 -1.088281,0.57832 0.202947,-1.21557 -0.886304,-0.85631 1.218791,-0.18262 0.540515,-1.10754 0.550307,1.10271 1.220361,0.17181 -0.878683,0.86413 z"
       inkscape:transform-center-x="0.0021095922"
       inkscape:transform-center-y="-0.14886144"
       transform="matrix(0.83075145,0,0,0.86521029,28.465016,18.507345)" />
  </g>
</svg>
