<?xml version="1.0" encoding="UTF-8" standalone="no"?>
<!-- Created with Inkscape (http://www.inkscape.org/) -->

<svg
   xmlns:dc="http://purl.org/dc/elements/1.1/"
   xmlns:cc="http://creativecommons.org/ns#"
   xmlns:rdf="http://www.w3.org/1999/02/22-rdf-syntax-ns#"
   xmlns:svg="http://www.w3.org/2000/svg"
   xmlns="http://www.w3.org/2000/svg"
   xmlns:sodipodi="http://sodipodi.sourceforge.net/DTD/sodipodi-0.dtd"
   xmlns:inkscape="http://www.inkscape.org/namespaces/inkscape"
   width="750"
   height="1000"
   viewBox="0 0 198.4375 264.58334"
   version="1.1"
   id="svg922"
   inkscape:version="0.92.2 (5c3e80d, 2017-08-06)"
   sodipodi:docname="licorne-arriere.svg">
  <defs
     id="defs916" />
  <sodipodi:namedview
     id="base"
     pagecolor="#ffffff"
     bordercolor="#666666"
     borderopacity="1.0"
     inkscape:pageopacity="0.0"
     inkscape:pageshadow="2"
     inkscape:zoom="1.6151782"
     inkscape:cx="234.59486"
     inkscape:cy="401.22298"
     inkscape:document-units="px"
     inkscape:current-layer="layer1"
     showgrid="false"
     units="px"
     inkscape:pagecheckerboard="true"
     inkscape:showpageshadow="false"
     inkscape:window-width="1920"
     inkscape:window-height="1017"
     inkscape:window-x="1042"
     inkscape:window-y="-8"
     inkscape:window-maximized="1"
     showguides="false" />
  <metadata
     id="metadata919">
    <rdf:RDF>
      <cc:Work
         rdf:about="">
        <dc:format>image/svg+xml</dc:format>
        <dc:type
           rdf:resource="http://purl.org/dc/dcmitype/StillImage" />
        <dc:title />
      </cc:Work>
    </rdf:RDF>
  </metadata>
  <g
     inkscape:label="Calque 1"
     inkscape:groupmode="layer"
     id="layer1"
     transform="translate(0,-32.416663)">
    <rect
       style="fill:#ff0002;fill-opacity:0.14678901;stroke:none;stroke-width:1.32221496;stroke-linecap:round;stroke-linejoin:round;stroke-miterlimit:4;stroke-dasharray:none;stroke-opacity:1;paint-order:stroke fill markers"
       id="rect886"
       width="198.4375"
       height="264.58334"
       x="-2.8421709e-014"
       y="32.416664" />
    <path
       style="fill:#ff00ff;fill-opacity:1;stroke:#000000;stroke-width:1.33349192;stroke-linecap:round;stroke-linejoin:round;stroke-miterlimit:4;stroke-dasharray:none;stroke-opacity:1"
       d="m 160.8996,90.594249 c -5.10949,-5.106059 -17.12389,-17.069453 -27.89116,-18.760767 0,0 -0.87345,6.965846 -2.39767,16.808575 -0.43554,2.812459 -53.481855,2.875063 -49.086825,-1.084023 6.44686,-5.807398 23.124125,-23.943405 23.124125,-23.943405 -3.79252,-0.896576 -7.720375,-1.266554 -7.720375,-1.266554 -51.80417,-5.433156 -51.2508,43.544025 -73.52817,62.199855 4.68393,1.98136 9.36786,1.21139 14.05178,0.22644 4.23118,10.09833 -8.57,22.11796 -19.85093,33.9661 4.26271,0.7715 9.19152,0.97948 18.73572,-2.71729 -20.76174,21.29979 -21.29077,39.89998 -18.73572,58.4217 6.00892,-4.4271 10.8616,-5.973 13.60569,-2.26441 -0.17826,13.82613 -4.601,23.05591 -9.1448,32.15458 57.83845,0.43161 91.741775,-101.32269 138.838335,-153.740801 z"
       id="path832-7-2-4"
       inkscape:connector-curvature="0"
       sodipodi:nodetypes="cssssccccccccc" />
    <path
       style="fill:#ff00ff;fill-opacity:1;stroke:#000004;stroke-width:1.33349192;stroke-linecap:round;stroke-linejoin:round;stroke-miterlimit:4;stroke-dasharray:none;stroke-opacity:1"
       d="m 69.483065,254.25053 c -13.12007,-0.82453 -24.52501,0.24939 -40.70556,-3.96272 2.55146,3.63681 4.87661,7.50337 9.14481,9.39729 -2.21359,7.72706 -6.65179,12.74393 -11.82133,16.86983 4.06211,2.61145 8.83641,4.72234 16.7283,4.64204 1.43531,4.93308 2.14672,9.66572 0.33456,13.69966 9.69976,-1.39609 16.12756,-7.59032 23.30812,-12.68068 z"
       id="path842-4-8-8"
       inkscape:connector-curvature="0"
       sodipodi:nodetypes="cccccccc" />
    <path
       style="fill:#f2f2f2;fill-opacity:1;stroke:#040000;stroke-width:1.33349192;stroke-linecap:round;stroke-linejoin:round;stroke-miterlimit:4;stroke-dasharray:none;stroke-opacity:1"
       d="m 68.454935,205.08377 c -2.45579,13.3201 -3.431653,46.71357 -1.182579,72.51504 l 36.579794,8.54587 c -1.01103,-3.92901 -0.47685,-15.07426 2.05134,-16.52177 3.71127,5.52988 3.11072,10.51063 2.73107,16.10601 l 30.23169,-6.84769 c 2.52962,-21.60095 2.78408,-58.93809 -4.28295,-82.23962"
       id="path828-1-2-0"
       inkscape:connector-curvature="0"
       sodipodi:nodetypes="ccccccc" />
    <path
       style="fill:none;stroke:#000000;stroke-width:1.33349192;stroke-linecap:round;stroke-linejoin:round;stroke-miterlimit:4;stroke-dasharray:none;stroke-opacity:1"
       d="m 87.970805,81.750636 44.274265,-47.09966 c 2.12766,-1.895885 4.48786,-2.789354 5.0185,1.585089 l -8.92177,65.101685 c -17.24603,-0.42443 -36.280105,2.03189 -40.370995,-19.587114 z"
       id="path830-1-3-2"
       inkscape:connector-curvature="0"
       sodipodi:nodetypes="ccccc" />
    <ellipse
       style="fill:#dddddd;fill-opacity:1;stroke:none;stroke-width:0;stroke-linecap:round;stroke-linejoin:round;stroke-miterlimit:4;stroke-dasharray:none;stroke-opacity:1;paint-order:stroke fill markers"
       id="path852-8-3-2"
       cx="110.27524"
       cy="236.57942"
       rx="14.051781"
       ry="25.757626" />
    <path
       style="fill:#ff9bd4;fill-opacity:1;stroke:#000000;stroke-width:1.33349192;stroke-linecap:round;stroke-linejoin:round;stroke-miterlimit:4;stroke-dasharray:none;stroke-opacity:1"
       d="m 39.051545,246.35789 -0.637798,11.27958 22.816092,3.99553 0.247686,-10.6029 z"
       id="path854-9-4-3"
       inkscape:connector-curvature="0"
       sodipodi:nodetypes="ccccc" />
    <path
       style="fill:#ff9bd4;fill-opacity:1;stroke:#000000;stroke-width:1.33349192;stroke-linecap:round;stroke-linejoin:round;stroke-miterlimit:4;stroke-dasharray:none;stroke-opacity:1"
       d="m 156.03098,248.66588 6.79298,9.73023 15.86015,-11.40648 -6.5616,-9.50141 z"
       id="path856-3-4-0"
       inkscape:connector-curvature="0"
       sodipodi:nodetypes="ccccc" />
    <path
       style="fill:#ff9bd4;fill-opacity:1;stroke:#000000;stroke-width:1.33349192;stroke-linecap:round;stroke-linejoin:round;stroke-miterlimit:4;stroke-dasharray:none;stroke-opacity:1"
       d="m 108.63456,285.72892 -1.67544,10.70348 30.43102,-5.12634 1.47611,-12.42483 z"
       id="path858-0-9-7"
       inkscape:connector-curvature="0"
       sodipodi:nodetypes="ccccc" />
    <path
       style="fill:#ff9bd4;fill-opacity:1;stroke:#000000;stroke-width:1.33349192;stroke-linecap:round;stroke-linejoin:round;stroke-miterlimit:4;stroke-dasharray:none;stroke-opacity:1"
       d="m 67.272356,277.59881 0.723529,13.06473 35.845455,6.24889 0.0108,-10.76775 z"
       id="path860-9-1-9"
       inkscape:connector-curvature="0"
       sodipodi:nodetypes="ccccc" />
    <path
       style="fill:#f2f2f2;fill-opacity:1;stroke:#000000;stroke-width:1.33349192;stroke-linecap:round;stroke-linejoin:round;stroke-miterlimit:4;stroke-dasharray:none;stroke-opacity:1"
       d="m 81.723885,207.57298 c -9.27457,2.16433 -22.53503,19.68188 -20.24636,43.45712 l -22.42598,-4.67221 c 2.046106,-47.72467 13.388888,-62.97739 26.515594,-76.11204 l -0.376714,-38.60004 c -18.0003,-0.0335 -25.71456,-10.86362 -26.18086,-29.30153 2.00191,-27.513889 28.98963,-45.484327 57.40863,-50.917452 l -0.15771,36.987198 67.227375,-1.033424 c 6.35437,0.149259 10.84152,2.651714 10.56924,9.619452 l -0.16649,68.168176 c -0.98716,6.21849 -5.63747,6.87889 -9.82141,6.4968 l -34.07307,-0.26978 c 3.9868,1.06602 21.51686,8.96628 26.13359,24.15557 2.91328,6.7598 4.03154,24.02032 15.99279,41.9374 l -16.09153,11.17766 C 142.9243,235.06699 139.763,218.15973 135.78103,205.5587"
       id="path826-9-4-3"
       inkscape:connector-curvature="0"
       sodipodi:nodetypes="ccccccccccccccccc" />
    <path
       style="fill:none;stroke:#000000;stroke-width:1.33349192;stroke-linecap:round;stroke-linejoin:round;stroke-miterlimit:4;stroke-dasharray:none;stroke-opacity:1"
       d="m 141.31696,159.33463 c -1.96097,-2.82245 -3.65748,-5.66928 -2.20802,-8.80648 3.41818,-4.98608 25.43248,2.20114 24.28826,7.04518 -1.62973,3.50548 -7.95151,3.84284 -12.45957,3.84284"
       id="path850-8-7-8"
       inkscape:connector-curvature="0"
       sodipodi:nodetypes="cccc" />
    <path
       style="fill:#000000;fill-opacity:0.98165134;stroke:none;stroke-width:0.26669842px;stroke-linecap:butt;stroke-linejoin:miter;stroke-opacity:1"
       d="m 83.622505,118.12883 c -3.28801,-6.39811 5.90164,-9.37521 9.03329,-10.75593 4.23246,-1.20692 7.24557,-4.39451 10.477475,-7.22667 -0.9216,2.19832 -1.46069,4.2025 -1.33266,5.86803 2.17443,-2.64155 5.71743,-4.70008 8.73931,-5.74225 -1.02831,2.04363 -2.05274,3.4958 -1.26734,5.74225 2.57349,-2.6376 4.9249,-3.13334 7.29513,-3.81064 -0.38122,1.23246 -1.29595,2.34485 -0.93836,3.69741 2.53373,0.1279 5.75908,0.25665 5.74174,1.57939 0.0126,1.35534 -3.86626,-1.14287 -3.60803,2.66169 0.81128,11.95256 -4.21855,22.26002 -10.47362,23.36403 -12.332995,2.17675 -17.247885,-13.57796 -14.510445,-24.21757 0.27761,-1.07897 -10.19271,2.8555 -9.15649,8.84026"
       id="path846-9-7-6"
       inkscape:connector-curvature="0"
       sodipodi:nodetypes="cccccccccsssc" />
    <path
       style="fill:#000080;fill-opacity:1;stroke:none;stroke-width:0.26669842px;stroke-linecap:butt;stroke-linejoin:miter;stroke-opacity:1"
       d="m 94.405965,109.18987 c -2.27749,5.35195 0.32575,22.35562 10.877955,23.33653 10.42658,-0.80018 12.5516,-22.24041 10.59007,-24.24229 -2.13208,-1.916 -20.115885,-1.37394 -21.468025,0.90576 z"
       id="path848-6-4-1"
       inkscape:connector-curvature="0"
       sodipodi:nodetypes="cccc" />
    <path
       style="fill:#e9c6af;fill-opacity:1;stroke:none;stroke-width:0.26669842px;stroke-linecap:butt;stroke-linejoin:miter;stroke-opacity:1"
       d="m 81.948615,72.579783 c -8.8331,4.662102 -38.52991,31.482757 -16.83984,42.117967 11.42638,-4.36065 20.14167,-13.2352 16.83984,-42.117967 z"
       id="path844-9-1-9"
       inkscape:connector-curvature="0"
       sodipodi:nodetypes="ccc" />
    <path
       sodipodi:type="star"
       style="fill:#ffffff;fill-opacity:0.98165134;stroke:none;stroke-width:1.32291675;stroke-linecap:round;stroke-linejoin:round;stroke-miterlimit:4;stroke-dasharray:none;stroke-opacity:1;paint-order:stroke fill markers"
       id="path880-5-5"
       sodipodi:sides="5"
       sodipodi:cx="87.598335"
       sodipodi:cy="114.32056"
       sodipodi:r1="4.5959363"
       sodipodi:r2="2.2979681"
       sodipodi:arg1="1.0974403"
       sodipodi:arg2="1.7257588"
       inkscape:flatsided="false"
       inkscape:rounded="0"
       inkscape:randomized="0"
       d="m 89.693512,118.41114 -2.449852,-1.82015 -2.888255,0.98626 0.97402,-2.89241 -1.830507,-2.44212 3.051829,0.0326 1.756939,-2.49558 0.912114,2.91252 2.916356,0.89978 -2.488112,1.76749 z"
       inkscape:transform-center-x="-0.27289969"
       inkscape:transform-center-y="-0.32317972"
       transform="matrix(1.2455759,0,0,1.4332645,-8.4870248,-47.850925)" />
    <path
       sodipodi:type="star"
       style="fill:#ffffff;fill-opacity:0.98165134;stroke:none;stroke-width:1.32291663;stroke-linecap:round;stroke-linejoin:round;stroke-miterlimit:4;stroke-dasharray:none;stroke-opacity:1;paint-order:stroke fill markers"
       id="path882-0-9"
       sodipodi:sides="5"
       sodipodi:cx="100.39729"
       sodipodi:cy="-141.01347"
       sodipodi:r1="2.5180888"
       sodipodi:r2="1.2590446"
       sodipodi:arg1="0.98279372"
       sodipodi:arg2="1.6111123"
       inkscape:flatsided="false"
       inkscape:rounded="0"
       inkscape:randomized="0"
       d="m 101.79408,-138.9183 -1.44753,-0.83715 -1.510258,0.71784 0.34887,-1.63538 -1.149405,-1.21451 1.663144,-0.17356 0.799879,-1.46846 0.67901,1.52811 1.64376,0.30696 -1.24349,1.11799 z"
       inkscape:transform-center-x="-0.03136907"
       inkscape:transform-center-y="-0.2140577"
       transform="matrix(1.0004056,0,0,1.0156399,0.40638524,268.20732)" />
    <path
       sodipodi:type="star"
       style="fill:#ffffff;fill-opacity:0.98165134;stroke:none;stroke-width:1.32291675;stroke-linecap:round;stroke-linejoin:round;stroke-miterlimit:4;stroke-dasharray:none;stroke-opacity:1;paint-order:stroke fill markers"
       id="path884-0-0"
       sodipodi:sides="5"
       sodipodi:cx="91.589149"
       sodipodi:cy="128.28841"
       sodipodi:r1="1.8558352"
       sodipodi:r2="0.9279176"
       sodipodi:arg1="0.93804749"
       sodipodi:arg2="1.566366"
       inkscape:flatsided="false"
       inkscape:rounded="0"
       inkscape:randomized="0"
       d="m 92.686623,129.78496 -1.093363,-0.56865 -1.088281,0.57832 0.202947,-1.21557 -0.886304,-0.85631 1.218791,-0.18262 0.540515,-1.10754 0.550307,1.10271 1.220361,0.17181 -0.878683,0.86413 z"
       inkscape:transform-center-x="0.0021112132"
       inkscape:transform-center-y="-0.15142298"
       transform="matrix(0.83075424,0,0,0.86494149,28.470415,18.518257)" />
  </g>
</svg>
